<?xml version="1.0" encoding="UTF-8" standalone="no"?>
<svg
   xmlns:dc="http://purl.org/dc/elements/1.1/"
   xmlns:cc="http://creativecommons.org/ns#"
   xmlns:rdf="http://www.w3.org/1999/02/22-rdf-syntax-ns#"
   xmlns:svg="http://www.w3.org/2000/svg"
   xmlns="http://www.w3.org/2000/svg"
   id="45f4d9ae-f998-11ea-b957-0242ac110007"
   version="1.1"
   width="595.275590551pt"
   viewBox="0 0 595.275590551 841.88976378"
   height="841.88976378pt">
  <metadata
     id="metadata89">
    <rdf:RDF>
      <cc:Work
         rdf:about="">
        <dc:format>image/svg+xml</dc:format>
        <dc:type
           rdf:resource="http://purl.org/dc/dcmitype/StillImage" />
      </cc:Work>
    </rdf:RDF>
  </metadata>
  <defs
     id="defs87" />
  <g
     id="g2" />
  <g
     id="g78">
    <g
       id="g76">
      <path
         id="path4"
         d="M 319.6412,404.0961 C 333.8449,404.0961 345.3605,415.6117 345.3605,429.8154 345.3605,444.0191 333.8449,455.5346 319.6412,455.5346 305.4375,455.5346 293.922,444.0191 293.922,429.8154 293.922,415.6117 305.4375,404.0961 319.6412,404.0961 Z M 319.6412,407.5551 C 331.9345,407.5551 341.9015,417.5221 341.9015,429.8154 341.9015,442.1086 331.9345,452.0757 319.6412,452.0757 307.3479,452.0757 297.3809,442.1086 297.3809,429.8154 297.3809,417.5221 307.3479,407.5551 319.6412,407.5551 Z"
         style="fill-rule:evenodd;fill:#e31c2a;" />
      <path
         id="path6"
         d="M 269.2787,439.8051 C 283.5541,439.8051 295.1277,451.3787 295.1277,465.6541 295.1277,479.9295 283.5541,491.5031 269.2787,491.5031 255.0034,491.5031 243.4298,479.9295 243.4298,465.6541 243.4298,451.3787 255.0034,439.8051 269.2787,439.8051 Z M 269.2787,443.2815 C 281.634,443.2815 291.6513,453.2988 291.6513,465.6541 291.6513,478.0094 281.634,488.0267 269.2787,488.0267 256.9235,488.0267 246.9062,478.0094 246.9062,465.6541 246.9062,453.2988 256.9235,443.2815 269.2787,443.2815 Z"
         style="fill-rule:evenodd;fill:#ffed00;" />
      <path
         id="path8"
         d="M 280.2354,404.0961 C 294.4392,404.0961 305.9547,415.6117 305.9547,429.8154 305.9547,444.0191 294.4392,455.5346 280.2354,455.5346 266.0317,455.5346 254.5162,444.0191 254.5162,429.8154 254.5162,415.6117 266.0317,404.0961 280.2354,404.0961 Z M 280.2354,407.5551 C 292.5287,407.5551 302.4957,417.5221 302.4957,429.8154 302.4957,442.1086 292.5287,452.0757 280.2354,452.0757 267.9422,452.0757 257.9751,442.1086 257.9751,429.8154 257.9751,417.5221 267.9422,407.5551 280.2354,407.5551 Z"
         style="fill-rule:evenodd;fill:#000000;" />
      <path
         id="path10"
         d="M 329.0507,440.6659 C 343.2428,440.6659 354.7488,452.172 354.7488,466.3641 354.7488,480.5561 343.2428,492.0622 329.0507,492.0622 314.8587,492.0622 303.3526,480.5561 303.3526,466.3641 303.3526,452.172 314.8587,440.6659 329.0507,440.6659 Z M 329.0507,444.122 C 341.3339,444.122 351.2927,454.0809 351.2927,466.3641 351.2927,478.6472 341.3339,488.6061 329.0507,488.6061 316.7675,488.6061 306.8087,478.6472 306.8087,466.3641 306.8087,454.0809 316.7675,444.122 329.0507,444.122 Z"
         style="fill-rule:evenodd;fill:#45ab36;" />
      <path
         id="path12"
         d="M 292.2866,453.8636 C 294.1026,457.3986 295.1282,461.4066 295.1282,465.6545 295.1282,479.9294 283.5542,491.5034 269.2782,491.5034 255.0034,491.5034 243.4293,479.9294 243.4293,465.6545 243.4293,458.8292 246.076,452.6234 250.3977,448.0028 L 255.5318,448.0028 C 250.2824,452.0961 246.9066,458.4808 246.9066,465.6545 246.9066,478.0096 256.9231,488.0261 269.2782,488.0261 281.6344,488.0261 291.6509,478.0096 291.6509,465.6545 291.6509,463.8132 291.4271,462.0238 291.0083,460.3117 290.5895,458.6007 289.9711,456.9636 289.1843,455.4338 288.9097,454.8985 289.2662,455.4984 288.9489,454.9885 L 292.2866,453.8636 Z"
         style="fill-rule:evenodd;fill:#ffed00;" />
      <g
         id="g26">
        <path
           id="path14"
           d="M 300.3824,314.6299 C 293.6621,321.9717 285.7016,328.9358 278.4706,335.8954 272.2051,341.9247 259.6205,353.9086 256.5528,361.6758 L 255.8561,363.4421 254.5077,362.0411 C 251.0071,358.4042 247.1162,355.2925 243.4247,351.8598 240.7935,349.4129 237.6394,346.2287 237.2528,342.6179 236.8844,339.1817 239.0487,336.2731 241.5267,333.9533 L 275.8443,301.8191 C 278.4135,299.413 281.0398,296.5441 281.8776,293.1511 283.4121,286.9334 278.2129,277.8797 275.2959,272.522 L 270.1709,264.977 277.3532,271.3274 C 279.3497,273.0914 281.7597,275.4567 283.8875,277.0857 287.033,279.4917 290.2369,281.8229 293.301,284.3232 297.8643,288.0485 303.2057,292.9571 305.2181,298.4124 307.0504,303.3823 303.9037,310.7854 300.3824,314.6299 Z"
           style="fill-rule:evenodd;fill:#000000;" />
        <path
           id="path16"
           d="M 255.4123,361.2833 C 244.5518,349.9983 232.7929,345.5514 242.3875,334.7542 L 276.7052,302.62 C 286.819,294.5464 285.2833,288.3616 276.3805,272.0081 281.4448,278.3108 300.0493,287.8806 304.0678,298.7811 305.5853,302.8956 303.0975,309.7656 299.4583,313.8936 288.2314,325.7048 260.247,349.0404 255.4123,361.2833 Z"
           style="fill-rule:evenodd;fill:#ffffff;" />
        <path
           id="path18"
           d="M 273.973,381.7003 C 270.7375,378.3379 267.2017,375.5927 263.6415,372.5752 261.1963,370.5026 258.249,367.8958 257.5438,364.7603 256.751,361.2334 258.9335,357.9516 261.2352,355.3436 274.3755,340.4557 291.189,327.8763 303.855,312.681 305.2934,310.9544 306.3695,309.0452 307.0626,306.9556 309.3084,300.1957 306.3902,292.7892 302.3497,287.2783 L 288.0483,274.1566 C 298.6875,281.8967 310.1218,290.7053 320.3269,299.0318 324.8901,302.7572 330.2316,307.6658 332.2439,313.1211 334.0751,318.0887 330.0152,324.8599 326.6046,328.5887 319.1207,336.7689 310.089,344.628 301.9473,352.3011 296.0915,357.82 278.3016,374.2348 276.0425,381.2681 L 275.42,383.2045 273.973,381.7003 Z"
           style="fill-rule:evenodd;fill:#000000;" />
        <path
           id="path20"
           d="M 274.8777,380.9425 C 264.0172,369.6575 252.5792,366.8623 262.1739,356.0651 273.0872,343.6165 294.0651,326.2765 304.8146,313.3779 306.4365,311.4318 307.5278,309.3856 308.2238,307.2916 310.0874,301.6846 308.7088,295.3969 303.4063,286.7167 308.4706,293.0195 327.0751,302.5893 331.0936,313.4898 332.6111,317.6043 329.3184,323.7244 325.6792,327.8525 313.2763,340.9193 278.3136,370.2425 274.8777,380.9425 Z"
           style="fill-rule:evenodd;fill:#38308a;" />
        <path
           id="path22"
           d="M 345.6808,313.1517 C 350.2441,316.8771 355.5856,321.7857 357.5979,327.241 359.4363,332.229 355.4859,339.066 351.9354,342.7324 342.0879,352.9035 299.3489,392.2026 298.5695,403.6 L 298.3859,406.2874 296.4526,404.2863 C 292.3283,400.0164 288.1018,395.6909 283.7343,391.6377 280.6009,388.7302 278.2007,385.5278 279.8811,381.2953 284.2292,370.3449 298.7628,357.432 307.6949,349.2927 316.3326,341.4222 329.5823,330.3073 335.4794,320.6377 335.7299,320.227 335.9172,319.7925 336.0363,319.3331 337.2255,314.7615 330.138,305.296 327.7098,301.4073 L 320.1177,292.8845 C 328.4843,299.2111 337.5112,306.4849 345.6808,313.1517 Z"
           style="fill-rule:evenodd;fill:#000000;" />
        <path
           id="path24"
           d="M 297.356,403.5274 C 292.7958,398.8061 287.8096,393.8205 284.5912,390.8334 281.3727,387.8463 279.6397,385.1694 281.0213,381.6895 288.4097,363.0805 325.9224,338.6075 336.5361,321.1983 339.4806,316.3685 334.5362,310.0838 328.7604,300.8367 333.8246,307.1394 352.4291,316.7092 356.4477,327.6097 357.9651,331.7242 354.6724,337.8443 351.0332,341.9724 337.3907,354.811 298.1681,391.6576 297.356,403.5274 Z"
           style="fill-rule:evenodd;fill:#e31c2a;" />
      </g>
      <path
         id="path28"
         d="M 259.7885,536.5888 L 263.5322,537.1112 C 263.1186,539.6868 262.074,541.6965 260.3835,543.155 258.6929,544.6134 256.6106,545.3388 254.1509,545.3388 251.0674,545.3388 248.5862,544.3305 246.7142,542.3134 244.8351,540.2962 243.8991,537.4086 243.8991,533.6504 243.8991,531.2126 244.3054,529.0866 245.1107,527.2583 245.916,525.4373 247.1423,524.0659 248.7966,523.1591 250.4435,522.2449 252.2356,521.7877 254.1801,521.7877 256.625,521.7877 258.6348,522.4045 260.1876,523.6452 261.7475,524.886 262.7487,526.6488 263.1841,528.927 L 259.4837,529.4931 C 259.1283,527.9766 258.5044,526.8376 257.5973,526.0686 256.6976,525.3066 255.6094,524.9222 254.3323,524.9222 252.4025,524.9222 250.8352,525.6113 249.6237,526.9898 248.4193,528.3757 247.8169,530.5524 247.8169,533.5415 247.8169,536.5743 248.3974,538.7726 249.5582,540.144 250.7264,541.5151 252.2429,542.2045 254.1076,542.2045 255.6167,542.2045 256.8719,541.7476 257.8731,540.826 258.8817,539.9118 259.52,538.4971 259.7885,536.5888 Z M 270.8904,533.5634 C 270.8904,529.3913 272.0511,526.3007 274.3801,524.291 276.3173,522.6222 278.6899,521.7877 281.4831,521.7877 284.5814,521.7877 287.1207,522.8036 289.0942,524.8349 291.0603,526.8594 292.047,529.6671 292.047,533.2442 292.047,536.1463 291.6119,538.4245 290.7411,540.0859 289.8706,541.7476 288.6009,543.039 286.9322,543.9603 285.2705,544.8818 283.4495,545.3388 281.4831,545.3388 278.32,545.3388 275.766,544.3305 273.8143,542.306 271.8626,540.2818 270.8904,537.3652 270.8904,533.5634 Z M 274.8081,533.5705 C 274.8081,536.4581 275.4394,538.6204 276.702,540.0496 277.9716,541.4862 279.5607,542.2045 281.4831,542.2045 283.3841,542.2045 284.9658,541.4862 286.2354,540.0425 287.498,538.5986 288.1293,536.4003 288.1293,533.4471 288.1293,530.6613 287.4906,528.5497 286.221,527.1205 284.9513,525.6839 283.3696,524.9656 281.4831,524.9656 279.5607,524.9656 277.9716,525.6768 276.702,527.106 275.4394,528.5353 274.8081,530.6902 274.8081,533.5705 Z M 301.6253,522.2667 L 305.4563,522.2667 305.4563,531.7132 310.1142,531.7132 C 310.4552,528.4919 311.4638,526.0323 313.1396,524.3343 314.8231,522.6367 316.9996,521.7877 319.6769,521.7877 321.9551,521.7877 323.7545,522.2449 325.0675,523.1662 326.3882,524.0877 327.4764,525.3503 328.3325,526.968 329.1888,528.5789 329.6169,530.7483 329.6169,533.4763 329.6169,537.3652 328.7316,540.318 326.9614,542.3278 325.1911,544.3376 322.7893,545.3388 319.7568,545.3388 316.9414,545.3388 314.6851,544.4028 312.98,542.5381 311.2824,540.6664 310.3245,538.1053 310.1142,534.8475 L 305.4563,534.8475 305.4563,544.86 301.6253,544.86 301.6253,522.2667 Z M 319.8872,525.0526 C 318.0155,525.0526 316.5571,525.7709 315.5122,527.2075 314.4674,528.6368 313.9452,530.6465 313.9452,533.2368 313.9452,536.3348 314.4674,538.5986 315.5196,540.0425 316.5715,541.4862 317.9792,542.2045 319.735,542.2045 321.4834,542.2045 322.9129,541.5369 324.03,540.2021 325.1401,538.867 325.6988,536.7121 325.6988,533.7448 325.6988,530.8498 325.2127,528.673 324.2477,527.2294 323.2828,525.7783 321.8318,525.0526 319.8872,525.0526 Z M 344.2813,534.6298 L 344.2813,531.6262 C 345.892,531.6117 346.9946,531.5462 347.5752,531.4374 348.1628,531.3214 348.7215,530.9875 349.2439,530.4217 349.7664,529.8559 350.0274,529.1521 350.0274,528.3031 350.0274,527.2801 349.6864,526.4529 348.9973,525.8435 348.3079,525.227 347.423,524.9222 346.3274,524.9222 344.1725,524.9222 342.6633,526.1845 341.7999,528.7093 L 338.1432,528.0999 C 339.2751,523.8918 342.0176,521.7877 346.3563,521.7877 348.7652,521.7877 350.6516,522.4408 352.0227,523.7541 353.3941,525.0671 354.0762,526.6344 354.0762,528.4556 354.0762,530.2911 353.1835,531.7569 351.4059,532.8377 352.5452,533.4471 353.3941,534.2236 353.9673,535.1666 354.5331,536.11 354.816,537.2274 354.816,538.5189 354.816,540.5431 354.0762,542.1827 352.6033,543.4452 351.123,544.7075 349.0625,545.3388 346.407,545.3388 341.2556,545.3388 338.2665,543.0606 337.4467,538.5042 L 341.0597,537.7207 C 341.3863,539.1573 342.0465,540.2747 343.0477,541.0655 344.0492,541.8561 345.1881,542.2482 346.4796,542.2482 347.7711,542.2482 348.8448,541.8853 349.7012,541.1526 350.5572,540.4269 350.9853,539.4983 350.9853,538.3664 350.9853,537.4885 350.7168,536.7266 350.1799,536.0737 349.6431,535.4206 349.0699,535.0144 348.4604,534.8548 347.851,534.6879 346.748,534.6082 345.1518,534.6082 345.0212,534.6082 344.7312,534.6153 344.2813,534.6298 Z"
         style="fill-rule:evenodd;fill:#00a1d7;" />
      <path
         id="path30"
         d="M 259.8369,536.2387 L 263.5807,536.7611 C 263.774,536.7878 263.9089,536.9664 263.8823,537.1597 L 263.8777,537.1849 C 263.664,538.505 263.2887,539.6817 262.7507,540.7152 262.2067,541.7606 261.4949,542.6626 260.6145,543.422 259.7363,544.1794 258.7552,544.748 257.6755,545.1262 256.5964,545.5043 255.4203,545.6931 254.1509,545.6931 252.5638,545.6931 251.1272,545.4317 249.8445,544.9102 248.5573,544.3866 247.4266,543.6009 246.4554,542.5543 245.48,541.5075 244.7504,540.237 244.2657,538.7443 243.7849,537.2637 243.5448,535.5652 243.5448,533.6504 243.5448,532.4122 243.6489,531.2492 243.8555,530.1609 244.063,529.0679 244.374,528.0528 244.7867,527.1157 245.2051,526.1689 245.7351,525.3378 246.3761,524.6249 247.0156,523.9137 247.7659,523.3204 248.6262,522.849 L 248.6435,522.8402 C 249.4905,522.3728 250.3723,522.0213 251.2894,521.7874 252.2146,521.5516 253.1784,521.4334 254.1801,521.4334 255.4373,521.4334 256.5876,521.5938 257.6268,521.915 258.6705,522.2375 259.5986,522.722 260.4076,523.3683 261.2228,524.0166 261.8929,524.8026 262.4153,525.7236 262.9344,526.6383 263.3068,527.6852 263.5316,528.8607 263.5682,529.0526 263.4423,529.238 263.2504,529.2746 L 259.5365,529.8432 C 259.3491,529.8712 259.1736,529.7468 259.1368,529.5631 258.9667,528.8411 258.7337,528.2101 258.4372,527.671 258.1444,527.1384 257.7886,526.6945 257.3688,526.3384 256.9516,525.9849 256.4906,525.7188 255.9881,525.5425 255.4841,525.3656 254.9319,525.2766 254.3323,525.2766 253.4156,525.2766 252.5882,525.439 251.8498,525.763 251.1153,526.0856 250.4614,526.5731 249.8896,527.2237 L 249.874,527.2401 C 249.3153,527.8901 248.8929,528.7297 248.6092,529.7587 248.3172,530.816 248.1712,532.0766 248.1712,533.5415 248.1712,535.0294 248.3124,536.3076 248.5942,537.376 248.8706,538.4239 249.2821,539.2706 249.8281,539.9155 L 249.8309,539.9189 C 250.3803,540.5624 251.0099,541.0454 251.7188,541.3666 252.4294,541.6886 253.2263,541.8502 254.1076,541.8502 254.8219,541.8502 255.4733,541.743 256.0603,541.5287 256.6426,541.3158 257.1676,540.995 257.6336,540.5658 L 257.6534,540.5488 C 258.1118,540.1284 258.4896,539.5904 258.7853,538.9359 259.0911,538.2592 259.3091,537.4599 259.4384,536.5403 259.465,536.347 259.6436,536.2121 259.8369,536.2387 Z M 263.1217,537.4108 L 260.0844,536.9871 C 259.9415,537.8315 259.7233,538.579 259.4305,539.2267 259.0963,539.9668 258.6617,540.5817 258.1294,541.0698 L 258.1126,541.0862 C 257.578,541.5783 256.974,541.9471 256.3013,542.1932 255.6334,542.4372 254.9018,542.5588 254.1076,542.5588 253.1259,542.5588 252.2322,542.376 251.428,542.0117 250.6241,541.6475 249.9129,541.1032 249.2957,540.3807 L 249.2884,540.3725 C 248.6738,539.6465 248.2143,538.7071 247.9105,537.5557 247.612,536.4244 247.4626,535.0864 247.4626,533.5415 247.4626,532.0182 247.6179,530.695 247.9283,529.5705 248.2404,528.4389 248.711,527.5091 249.3391,526.7795 L 249.3578,526.756 C 249.9973,526.0286 250.734,525.4812 251.5674,525.115 252.3977,524.7507 253.3192,524.5679 254.3323,524.5679 255.0081,524.5679 255.6377,524.6708 256.2205,524.8752 256.8073,525.081 257.343,525.3897 257.8258,525.7987 258.3128,526.2117 258.7229,526.7222 259.0574,527.3303 259.3417,527.847 259.5719,528.4355 259.7485,529.0946 L 262.7617,528.6334 C 262.548,527.6786 262.2274,526.8246 261.8008,526.0723 261.3243,525.2318 260.7123,524.5143 259.9676,523.9222 259.2264,523.33 258.3757,522.8858 257.4193,522.5902 256.4524,522.2914 255.3712,522.142 254.1801,522.142 253.2373,522.142 252.3317,522.2529 251.464,522.474 250.6017,522.6934 249.7759,523.0216 248.9882,523.4567 L 248.9669,523.4692 C 248.1769,523.902 247.4884,524.4463 246.9022,525.0983 246.312,525.7548 245.8227,526.5232 245.4347,527.4009 245.0424,528.2912 244.747,529.2547 244.5506,530.2908 244.353,531.3314 244.2535,532.4511 244.2535,533.6504 244.2535,535.4932 244.4817,537.1186 244.9386,538.5254 245.3913,539.9195 246.0694,541.1027 246.973,542.0724 247.873,543.0421 248.9199,543.7698 250.1104,544.2542 251.3069,544.7407 252.6542,544.9844 254.1509,544.9844 255.3443,544.9844 256.4425,544.8095 257.4431,544.4589 258.4386,544.1102 259.3429,543.5864 260.1524,542.8879 260.9623,542.1895 261.6188,541.3564 262.1225,540.3886 262.5812,539.5076 262.914,538.5152 263.1217,537.4108 Z M 270.536,533.5634 C 270.536,531.4363 270.8342,529.579 271.4309,527.9919 272.033,526.3909 272.9392,525.0679 274.1491,524.0239 275.152,523.1602 276.2674,522.5119 277.4914,522.0805 278.7151,521.6494 280.0468,521.4334 281.4831,521.4334 283.0762,521.4334 284.5298,521.6964 285.8426,522.222 287.157,522.7478 288.3266,523.5375 289.3476,524.5886 290.3669,525.6383 291.132,526.89 291.6417,528.342 292.1477,529.7828 292.4014,531.4184 292.4014,533.2442 292.4014,534.7157 292.2902,536.0332 292.068,537.1965 L 292.0652,537.2101 C 291.8415,538.3777 291.5036,539.3911 291.054,540.2492 290.1501,541.9746 288.8325,543.3154 287.1026,544.2704 L 287.0844,544.2797 C 286.2323,544.7494 285.3411,545.1024 284.413,545.3371 283.4736,545.5743 282.496,545.6931 281.4831,545.6931 279.8569,545.6931 278.384,545.4326 277.0642,544.911 275.7402,544.3877 274.572,543.6011 273.5597,542.5509 272.5481,541.5015 271.7901,540.2222 271.2864,538.7162 270.786,537.2203 270.536,535.5017 270.536,533.5634 Z M 272.0925,528.2408 C 271.5273,529.7443 271.2447,531.5187 271.2447,533.5634 271.2447,535.4289 271.482,537.0724 271.9565,538.4917 272.4265,539.8974 273.1309,541.0882 274.0689,542.0611 275.0077,543.0351 276.0934,543.7655 277.3244,544.2523 278.5601,544.7407 279.9462,544.9844 281.4831,544.9844 282.4401,544.9844 283.3603,544.873 284.2413,544.6505 285.1126,544.4303 285.9469,544.1006 286.7417,543.6621 L 286.7618,543.6502 C 288.3688,542.7632 289.5914,541.5199 290.4282,539.9226 290.8451,539.1269 291.1598,538.1776 291.3707,537.0766 L 291.3729,537.0639 C 291.5858,535.9482 291.6927,534.6746 291.6927,533.2442 291.6927,531.4944 291.4529,529.9367 290.9744,528.5744 290.4996,527.2217 289.7878,526.0564 288.8408,525.0813 287.8892,524.1019 286.8012,523.3669 285.5795,522.8779 284.3544,522.3872 282.9886,522.142 281.4831,522.142 280.1254,522.142 278.8722,522.3441 277.7267,522.7478 276.584,523.1506 275.5446,523.7541 274.6111,524.558 273.4926,525.5232 272.6527,526.7514 272.0925,528.2408 Z M 275.1625,533.5705 C 275.1625,536.3697 275.764,538.4546 276.9664,539.8157 277.5665,540.4949 278.2423,541.0049 278.9932,541.3433 279.7424,541.6812 280.5721,541.8502 281.4831,541.8502 282.382,541.8502 283.2041,541.6812 283.9493,541.3422 L 283.968,541.3343 C 284.7053,540.9958 285.3729,540.4873 285.9695,539.8087 L 285.9854,539.7919 C 286.5733,539.1136 287.0167,538.2539 287.3154,537.2138 287.6216,536.1469 287.7749,534.8911 287.7749,533.4471 287.7749,532.0888 287.6204,530.898 287.3126,529.8778 287.0099,528.8734 286.5572,528.0318 285.9565,527.3558 L 285.9392,527.3348 C 285.3437,526.6661 284.6758,526.163 283.9374,525.8273 L 283.9204,525.8191 C 283.182,525.4866 282.369,525.3199 281.4831,525.3199 280.5707,525.3199 279.7404,525.4875 278.9918,525.8225 278.2417,526.1581 277.5665,526.6641 276.9664,527.3399 276.3706,528.0146 275.9216,528.8664 275.6205,529.8939 L 275.616,529.9078 C 275.3138,530.947 275.1625,532.1679 275.1625,533.5705 Z M 276.4375,540.2835 C 275.1154,538.7868 274.4538,536.546 274.4538,533.5705 274.4538,532.1078 274.6154,530.8223 274.9371,529.7145 L 274.9425,529.6944 C 275.2724,528.5679 275.7713,527.6265 276.4375,526.8722 277.1062,526.1193 277.8616,525.5541 278.7038,525.1774 279.5471,524.7998 280.4737,524.6113 281.4831,524.6113 282.4688,524.6113 283.3775,524.7986 284.2087,525.1728 L 284.2311,525.1822 C 285.0574,525.558 285.8037,526.1202 286.469,526.8679 L 286.4854,526.8852 C 287.155,527.6387 287.657,528.5696 287.9906,529.6759 288.3186,530.7639 288.4836,532.0216 288.4836,533.4471 288.4836,534.956 288.3209,536.2764 287.9963,537.4077 287.6692,538.5464 287.1765,539.4954 286.5192,540.2543 L 286.5013,540.2764 C 285.8394,541.029 285.0939,541.5956 284.2642,541.9769 L 284.243,541.9874 C 283.4048,542.3686 282.4849,542.5588 281.4831,542.5588 280.472,542.5588 279.5451,542.3686 278.7024,541.9885 277.8613,541.6092 277.1062,541.0403 276.4375,540.2835 Z M 301.6253,521.9124 L 305.4563,521.9124 C 305.6519,521.9124 305.8106,522.0711 305.8106,522.2667 L 305.8106,531.3589 309.7987,531.3589 C 309.9821,529.8449 310.3166,528.4976 310.7996,527.3184 311.3215,526.0453 312.018,524.9676 312.8876,524.0866 L 312.8941,524.0801 C 313.7692,523.1993 314.7741,522.5372 315.9082,522.095 317.0398,521.6542 318.2964,521.4334 319.6769,521.4334 320.8467,521.4334 321.8967,521.5518 322.8248,521.7891 323.7633,522.0289 324.5794,522.3915 325.2711,522.8768 L 325.2898,522.8906 C 325.9672,523.366 326.5852,523.9276 327.1428,524.5761 327.7037,525.2289 328.2046,525.9711 328.6449,526.8022 329.0896,527.6375 329.4224,528.6161 329.6432,529.7355 329.8618,530.843 329.9712,532.0902 329.9712,533.4763 329.9712,535.4541 329.7444,537.1988 329.2917,538.7083 328.8342,540.2339 328.1454,541.5191 327.2272,542.5617 326.3068,543.6068 325.22,544.3909 323.9683,544.9136 322.7233,545.4334 321.3187,545.6931 319.7568,545.6931 318.3043,545.6931 316.9913,545.4499 315.8178,544.9643 314.6403,544.4773 313.6079,543.7474 312.7198,542.7763 311.8397,541.806 311.1523,540.6593 310.6585,539.3358 310.2012,538.1096 309.9095,536.7311 309.7854,535.2018 L 305.8106,535.2018 305.8106,544.86 C 305.8106,545.0556 305.6519,545.2143 305.4563,545.2143 L 301.6253,545.2143 C 301.4297,545.2143 301.271,545.0556 301.271,544.86 L 301.271,522.2667 C 301.271,522.0711 301.4297,521.9124 301.6253,521.9124 Z M 305.102,522.6211 L 301.9796,522.6211 301.9796,544.5057 305.102,544.5057 305.102,534.8475 C 305.102,534.6519 305.2607,534.4931 305.4563,534.4931 L 310.1142,534.4931 C 310.2993,534.4937 310.4555,534.638 310.4671,534.8254 310.57,536.4204 310.8549,537.842 311.3201,539.0892 311.7824,540.3285 312.4236,541.3995 313.2417,542.3014 314.058,543.1938 315.0062,543.8645 316.0865,544.3112 317.1708,544.7597 318.3942,544.9844 319.7568,544.9844 321.2269,544.9844 322.5407,544.7432 323.6967,544.2605 324.8461,543.7806 325.8465,543.058 326.6955,542.094 327.5467,541.1273 328.1865,539.9308 328.6137,538.5064 329.046,537.0647 329.2625,535.3875 329.2625,533.4763 329.2625,532.1344 329.1576,530.9323 328.9482,529.871 328.7412,528.8219 328.4314,527.9091 328.0195,527.1341 327.604,526.3475 327.1323,525.6485 326.6059,525.0359 326.0863,524.4316 325.5123,523.9094 324.885,523.4692 L 324.864,523.4556 C 324.2449,523.021 323.5059,522.6942 322.6501,522.4757 321.7796,522.2531 320.7881,522.142 319.6769,522.142 318.3806,522.142 317.209,522.3461 316.1628,522.7537 315.1222,523.1594 314.1984,523.7691 313.3916,524.5821 312.586,525.3985 311.9391,526.4005 311.4527,527.5871 310.9646,528.7779 310.6361,530.1578 310.4685,531.7237 310.4631,531.9145 310.3061,532.0675 310.1142,532.0675 L 305.4563,532.0675 C 305.2607,532.0675 305.102,531.9088 305.102,531.7132 L 305.102,522.6211 Z M 319.8872,525.407 C 318.1354,525.407 316.7722,526.0765 315.7988,527.415 L 315.7897,527.4272 C 315.2976,528.1036 314.9269,528.9199 314.6788,529.8755 314.4263,530.8483 314.2996,531.9692 314.2996,533.2368 314.2996,534.761 314.4271,536.0754 314.6825,537.1812 314.934,538.2686 315.3078,539.1533 315.8048,539.835 316.2969,540.5105 316.8697,541.0154 317.5217,541.3496 318.1723,541.6832 318.911,541.8502 319.735,541.8502 320.5568,541.8502 321.302,541.694 321.9698,541.3827 322.6382,541.0712 323.2346,540.6015 323.7588,539.9751 L 323.7744,539.9575 C 324.2877,539.3333 324.6766,538.5112 324.9394,537.4947 325.209,536.451 325.3445,535.2004 325.3445,533.7448 325.3445,532.3201 325.2263,531.078 324.9907,530.0209 324.7586,528.9775 324.4124,528.1112 323.9544,527.4258 323.5062,526.7526 322.9472,526.2486 322.2771,525.9138 321.6008,525.5759 320.8039,525.407 319.8872,525.407 Z M 315.2256,527.0 C 316.3414,525.4659 317.8956,524.6983 319.8872,524.6983 320.9145,524.6983 321.8168,524.8925 322.5929,525.28 323.3744,525.6703 324.0249,526.2559 324.5426,527.0343 325.0488,527.7932 325.4289,528.7388 325.6801,529.8684 325.9284,530.983 326.0531,532.2762 326.0531,533.7448 326.0531,535.2542 325.9094,536.5641 325.6231,537.6722 325.3348,538.7885 324.8991,539.7009 324.3189,540.4062 L 324.3013,540.4292 C 323.7089,541.1373 323.0314,541.6696 322.2686,542.0251 321.5064,542.3805 320.6614,542.5588 319.735,542.5588 318.8018,542.5588 317.9563,542.3652 317.2008,541.9777 316.4491,541.5922 315.7929,541.0165 315.2344,540.25 314.6794,539.4883 314.2658,538.518 313.9931,537.3388 313.725,536.1775 313.5909,534.8106 313.5909,533.2368 313.5909,531.9145 313.7258,530.7347 313.9951,529.698 314.2658,528.6555 314.6737,527.7597 315.2174,527.0119 L 315.2256,527.0 Z M 343.9276,534.6298 L 343.927,531.6262 C 343.927,531.4306 344.0857,531.2718 344.2813,531.2718 L 344.3094,531.273 C 345.0824,531.2659 345.7412,531.246 346.2829,531.2149 346.82,531.1843 347.2296,531.142 347.5074,531.0904 347.7628,531.0394 348.0129,530.941 348.2552,530.7934 L 348.2714,530.784 C 348.5126,530.6355 348.7504,530.4348 348.9837,530.1822 349.2133,529.9336 349.3857,529.655 349.4993,529.3468 349.615,529.0342 349.6731,528.6861 349.6731,528.3031 349.6731,527.8363 349.5963,527.4176 349.4426,527.0502 349.2918,526.6902 349.0654,526.375 348.7635,526.108 L 348.7586,526.1034 C 348.4519,525.8302 348.0993,525.6241 347.6999,525.4866 347.2931,525.3466 346.8359,525.2766 346.3274,525.2766 345.3352,525.2766 344.4948,525.5646 343.8065,526.1403 343.1027,526.729 342.5448,527.6237 342.1349,528.8227 342.0777,528.9925 341.9028,529.0903 341.7316,529.0563 L 338.0851,528.4485 C 337.8926,528.4165 337.7625,528.2342 337.7945,528.0418 L 337.8016,528.0086 C 338.3875,525.8288 339.3984,524.1878 340.8301,523.0871 342.2642,521.985 344.1076,521.4334 346.3563,521.4334 347.5973,521.4334 348.7099,521.6037 349.6935,521.9447 350.6873,522.2891 351.5457,522.8079 352.2677,523.4995 352.9871,524.1883 353.5271,524.9466 353.8877,525.7732 354.2499,526.6029 354.4305,527.4975 354.4305,528.4556 354.4305,529.4381 354.1895,530.3256 353.7091,531.114 353.3207,531.7512 352.7762,532.3201 352.0772,532.8181 352.4681,533.0625 352.8215,533.3281 353.137,533.6155 353.5866,534.0246 353.9636,534.4812 354.2689,534.9838 354.8701,535.9853 355.1703,537.1634 355.1703,538.5189 355.1703,539.5808 354.9747,540.5457 354.5847,541.4131 L 354.5759,541.4309 C 354.185,542.2927 353.6033,543.0535 352.8332,543.7137 352.0568,544.3758 351.1281,544.873 350.0481,545.203 348.98,545.5295 347.7665,545.6931 346.407,545.6931 341.0592,545.6931 337.9538,543.3171 337.0992,538.5665 337.0657,538.3786 337.1871,538.1991 337.3722,538.1592 L 340.9849,537.3746 C 341.176,537.3334 341.3648,537.4548 341.4059,537.6458 L 341.4095,537.6654 C 341.5643,538.338 341.7968,538.9364 342.1069,539.4583 342.4156,539.9779 342.8022,540.4224 343.2662,540.7886 343.7334,541.1574 344.2343,541.434 344.7697,541.6183 345.3035,541.802 345.8733,541.8938 346.4796,541.8938 347.0873,541.8938 347.6412,541.8094 348.1401,541.6401 348.6342,541.4726 349.0784,541.2206 349.4713,540.8841 349.8608,540.5539 350.1513,540.1806 350.3432,539.7639 350.5348,539.3477 350.6309,538.8814 350.6309,538.3664 350.6309,537.5721 350.3894,536.8844 349.9072,536.298 349.6598,535.9969 349.4044,535.7529 349.1425,535.5672 L 349.1283,535.5564 C 348.8822,535.3843 348.6297,535.2642 348.3717,535.1967 L 348.3524,535.191 C 348.0735,535.1168 347.6727,535.0603 347.1511,535.0218 346.6131,534.9821 345.9461,534.9626 345.1518,534.9626 L 344.8429,534.9665 344.291,534.9827 C 344.0962,534.9878 343.9335,534.8341 343.9284,534.6394 L 343.9276,534.6298 Z M 344.6357,531.9751 L 344.6357,534.2661 345.1518,534.2539 C 345.9538,534.2539 346.6369,534.2743 347.201,534.316 347.7637,534.3574 348.2099,534.4226 348.5378,534.5101 L 348.5492,534.513 C 348.8871,534.6014 349.2147,534.7565 349.53,534.9764 L 349.5523,534.9912 C 349.8633,535.2117 350.1638,535.4983 350.4526,535.8495 351.0437,536.5681 351.3396,537.4052 351.3396,538.3664 351.3396,538.9829 351.2217,539.5476 350.9855,540.0598 350.75,540.5712 350.3974,541.0259 349.9296,541.4224 349.467,541.8179 348.9457,542.1138 348.3669,542.3102 347.7923,542.5053 347.163,542.6025 346.4796,542.6025 345.7947,542.6025 345.1487,542.4979 344.5401,542.2884 343.9335,542.0798 343.3635,541.7643 342.8291,541.3425 342.294,540.9201 341.8503,540.411 341.498,539.8183 341.2015,539.3194 340.9688,538.759 340.8001,538.1393 L 337.86,538.7769 C 338.7297,542.9149 341.581,544.9844 346.407,544.9844 347.7027,544.9844 348.8482,544.8319 349.8435,544.5278 350.8271,544.2273 351.6701,543.7766 352.3734,543.1768 353.065,542.5841 353.5852,541.9049 353.9322,541.1401 L 353.9395,541.1222 C 354.2873,540.3489 354.4617,539.481 354.4617,538.5189 354.4617,537.2915 354.1955,536.2339 353.6643,535.3481 353.3975,534.9084 353.0631,534.5048 352.6608,534.1388 352.2549,533.7689 351.7812,533.4386 351.2398,533.1492 351.186,533.12 351.1383,533.0767 351.1043,533.0205 351.0034,532.8541 351.0567,532.637 351.2231,532.5361 352.0619,532.0261 352.69,531.4286 353.1059,530.746 353.516,530.0731 353.7218,529.3086 353.7218,528.4556 353.7218,527.593 353.5614,526.7923 353.2397,526.0555 352.9168,525.3151 352.4295,524.6325 351.7778,524.0086 351.1298,523.3881 350.3582,522.9221 349.4639,522.612 348.5599,522.2985 347.5239,522.142 346.3563,522.142 344.2654,522.142 342.5664,522.6437 341.2621,523.6461 340.0384,524.5866 339.1475,525.9773 338.5919,527.8164 L 341.5666,528.3122 C 342.0105,527.127 342.606,526.2219 343.3524,525.5977 344.173,524.9112 345.1649,524.5679 346.3274,524.5679 346.9144,524.5679 347.4479,524.6507 347.9295,524.8165 348.4134,524.9832 348.8445,525.2357 349.2238,525.5725 L 349.2312,525.579 C 349.6156,525.9189 349.9038,526.3203 350.0957,526.7786 350.2865,527.2345 350.3818,527.7441 350.3818,528.3031 350.3818,528.7691 350.3089,529.198 350.1638,529.5906 350.0172,529.9872 349.797,530.3443 349.5042,530.6613 349.2289,530.9592 348.9401,531.2007 348.6399,531.3858 L 348.6231,531.3966 C 348.306,531.5899 347.9783,531.7189 347.6429,531.7849 347.3337,531.8422 346.8929,531.8881 346.3214,531.9207 345.8571,531.9473 345.2944,531.9658 344.6357,531.9751 Z"
         style="fill-rule:evenodd;fill:#2d2c2b;" />
      <path
         id="path32"
         d="M 259.001,568.1625 L 262.7447,568.6849 C 262.3311,571.2605 261.2866,573.2702 259.596,574.7287 257.9054,576.1871 255.8231,576.9125 253.3635,576.9125 250.2799,576.9125 247.7988,575.9042 245.9268,573.8871 244.0477,571.8699 243.1117,568.9823 243.1117,565.2241 243.1117,562.7863 243.5179,560.6603 244.3232,558.832 245.1285,557.011 246.3548,555.6396 248.0091,554.7328 249.656,553.8186 251.4481,553.3614 253.3927,553.3614 255.8375,553.3614 257.8473,553.9782 259.4001,555.2189 260.96,556.4597 261.9612,558.2225 262.3966,560.5007 L 258.6963,561.0668 C 258.3408,559.5503 257.7169,558.4113 256.8098,557.6423 255.9101,556.8803 254.8219,556.4959 253.5449,556.4959 251.6151,556.4959 250.0478,557.185 248.8363,558.5635 247.6318,559.9494 247.0294,562.1261 247.0294,565.1152 247.0294,568.148 247.61,570.3463 248.7708,571.7177 249.9389,573.0888 251.4555,573.7782 253.3201,573.7782 254.8293,573.7782 256.0844,573.3213 257.0856,572.3997 258.0942,571.4855 258.7326,570.0708 259.001,568.1625 Z M 274.1468,553.8404 L 277.9775,553.8404 277.9775,563.2432 288.5995,563.2432 288.5995,553.8404 292.4303,553.8404 292.4303,576.4337 288.5995,576.4337 288.5995,566.4212 277.9775,566.4212 277.9775,576.4337 274.1468,576.4337 274.1468,553.8404 Z M 306.3212,553.8404 L 315.1363,553.8404 C 317.2986,553.8404 318.9093,554.0219 319.9686,554.3844 321.0205,554.7472 321.9276,555.4074 322.6822,556.3723 323.4438,557.3446 323.8211,558.4983 323.8211,559.8479 323.8211,560.9288 323.5963,561.8721 323.1536,562.6701 322.7037,563.4754 322.0364,564.1503 321.1367,564.6872 322.196,565.0427 323.0739,565.7029 323.7778,566.6751 324.4742,567.6401 324.8223,568.7938 324.8223,570.1215 324.6846,572.262 323.9155,573.8508 322.5297,574.8812 321.1438,575.9186 319.127,576.4337 316.4859,576.4337 L 306.3212,576.4337 306.3212,553.8404 Z M 310.1519,563.3739 L 314.2151,563.3739 C 315.8331,563.3739 316.9502,563.2869 317.5526,563.1199 318.162,562.9459 318.706,562.6049 319.1851,562.0825 319.6638,561.5674 319.9034,560.9435 319.9034,560.2178 319.9034,559.0208 319.4824,558.1936 318.6482,557.7219 317.8063,557.2505 316.37,557.0181 314.3384,557.0181 L 310.1519,557.0181 310.1519,563.3739 Z M 310.1519,573.2994 L 315.18,573.2994 C 317.342,573.2994 318.8293,573.0454 319.6349,572.5449 320.4403,572.0369 320.8609,571.1734 320.9046,569.9327 320.9046,569.2144 320.6724,568.5398 320.2081,567.923 319.7364,567.3064 319.127,566.9147 318.3797,566.7551 317.6323,566.5881 316.4278,566.5082 314.7738,566.5082 L 310.1519,566.5082 310.1519,573.2994 Z M 351.8597,568.1625 L 355.6035,568.6849 C 355.1899,571.2605 354.1453,573.2702 352.4547,574.7287 350.7642,576.1871 348.6818,576.9125 346.2222,576.9125 343.1387,576.9125 340.6575,575.9042 338.7855,573.8871 336.9064,571.8699 335.9704,568.9823 335.9704,565.2241 335.9704,562.7863 336.3766,560.6603 337.182,558.832 337.9873,557.011 339.2135,555.6396 340.8678,554.7328 342.5148,553.8186 344.3068,553.3614 346.2514,553.3614 348.6963,553.3614 350.706,553.9782 352.2589,555.2189 353.8188,556.4597 354.82,558.2225 355.2554,560.5007 L 351.555,561.0668 C 351.1996,559.5503 350.5757,558.4113 349.6686,557.6423 348.7689,556.8803 347.6806,556.4959 346.4036,556.4959 344.4738,556.4959 342.9065,557.185 341.695,558.5635 340.4906,559.9494 339.8882,562.1261 339.8882,565.1152 339.8882,568.148 340.4687,570.3463 341.6295,571.7177 342.7977,573.0888 344.3142,573.7782 346.1788,573.7782 347.688,573.7782 348.9432,573.3213 349.9444,572.3997 350.9529,571.4855 351.5913,570.0708 351.8597,568.1625 Z"
         style="fill-rule:evenodd;fill:#00a1d7;" />
      <path
         id="path34"
         d="M 259.0495,567.8124 L 262.7932,568.3348 C 262.9865,568.3615 263.1214,568.5401 263.0948,568.7334 L 263.0903,568.7586 C 262.8765,570.0787 262.5012,571.2554 261.9632,572.2889 261.4192,573.3343 260.7075,574.2363 259.827,574.9957 258.9489,575.7531 257.9678,576.3217 256.8881,576.6999 255.8089,577.078 254.6328,577.2668 253.3635,577.2668 251.7763,577.2668 250.3397,577.0054 249.0571,576.4839 247.7699,575.9603 246.6391,575.1746 245.668,574.128 244.6926,573.0812 243.9629,571.8107 243.4782,570.318 242.9974,568.8374 242.7574,567.1389 242.7574,565.2241 242.7574,563.9859 242.8614,562.8229 243.068,561.7346 243.2755,560.6416 243.5865,559.6265 243.9992,558.6894 244.4176,557.7426 244.9477,556.9115 245.5886,556.1986 246.2281,555.4874 246.9784,554.8941 247.8387,554.4227 L 247.856,554.4139 C 248.703,553.9465 249.5849,553.595 250.5019,553.3611 251.4271,553.1253 252.3909,553.0071 253.3927,553.0071 254.6498,553.0071 255.8001,553.1675 256.8393,553.4887 257.883,553.8112 258.8111,554.2957 259.6201,554.942 260.4353,555.5903 261.1054,556.3763 261.6279,557.2973 262.1469,558.212 262.5194,559.2589 262.7442,560.4344 262.7807,560.6263 262.6549,560.8117 262.463,560.8483 L 258.749,561.4169 C 258.5616,561.4449 258.3862,561.3205 258.3493,561.1368 258.1792,560.4148 257.9462,559.7838 257.6497,559.2447 257.3569,558.7121 257.0012,558.2682 256.5814,557.9121 256.1641,557.5586 255.7032,557.2925 255.2006,557.1162 254.6966,556.9393 254.1444,556.8503 253.5449,556.8503 252.6282,556.8503 251.8007,557.0127 251.0623,557.3367 250.3278,557.6593 249.6739,558.1468 249.1021,558.7974 L 249.0866,558.8138 C 248.5278,559.4638 248.1055,560.3034 247.8217,561.3324 247.5298,562.3897 247.3838,563.6503 247.3838,565.1152 247.3838,566.6031 247.5249,567.8813 247.8067,568.9497 248.0831,569.9976 248.4947,570.8443 249.0406,571.4892 L 249.0435,571.4926 C 249.5928,572.1361 250.2224,572.6191 250.9313,572.9403 251.642,573.2623 252.4388,573.4239 253.3201,573.4239 254.0344,573.4239 254.6858,573.3167 255.2729,573.1024 255.8551,572.8895 256.3801,572.5687 256.8461,572.1395 L 256.866,572.1225 C 257.3243,571.7021 257.7022,571.1641 257.9978,570.5096 258.3037,569.8329 258.5217,569.0336 258.6509,568.114 258.6776,567.9207 258.8562,567.7858 259.0495,567.8124 Z M 262.3343,568.9845 L 259.2969,568.5608 C 259.1541,569.4052 258.9358,570.1527 258.643,570.8004 258.3088,571.5405 257.8742,572.1554 257.3419,572.6435 L 257.3252,572.6599 C 256.7906,573.152 256.1865,573.5208 255.5138,573.7669 254.846,574.0109 254.1144,574.1325 253.3201,574.1325 252.3385,574.1325 251.4447,573.9497 250.6405,573.5854 249.8366,573.2212 249.1254,572.6769 248.5083,571.9544 L 248.5009,571.9462 C 247.8864,571.2202 247.4269,570.2808 247.123,569.1294 246.8245,567.9981 246.6751,566.6601 246.6751,565.1152 246.6751,563.5919 246.8305,562.2687 247.1409,561.1442 247.4529,560.0126 247.9235,559.0828 248.5517,558.3532 L 248.5704,558.3297 C 249.2099,557.6023 249.9466,557.0549 250.78,556.6887 251.6102,556.3244 252.5318,556.1416 253.5449,556.1416 254.2207,556.1416 254.8502,556.2445 255.433,556.4489 256.0198,556.6547 256.5556,556.9634 257.0383,557.3724 257.5253,557.7854 257.9355,558.2959 258.27,558.904 258.5543,559.4207 258.7844,560.0092 258.961,560.6683 L 261.9743,560.2071 C 261.7605,559.2523 261.4399,558.3983 261.0133,557.646 260.5368,556.8055 259.9248,556.088 259.1802,555.4959 258.4389,554.9037 257.5882,554.4595 256.6318,554.1639 255.6649,553.8651 254.5838,553.7157 253.3927,553.7157 252.4499,553.7157 251.5442,553.8266 250.6765,554.0477 249.8142,554.2671 248.9885,554.5953 248.2007,555.0304 L 248.1795,555.0429 C 247.3894,555.4757 246.7009,556.02 246.1147,556.672 245.5245,557.3285 245.0353,558.0969 244.6472,558.9746 244.2549,559.8649 243.9595,560.8284 243.7631,561.8645 243.5655,562.9051 243.466,564.0248 243.466,565.2241 243.466,567.0669 243.6942,568.6923 244.1511,570.0991 244.6038,571.4932 245.2819,572.6764 246.1856,573.6461 247.0856,574.6158 248.1324,575.3435 249.323,575.8279 250.5195,576.3144 251.8668,576.5581 253.3635,576.5581 254.5569,576.5581 255.655,576.3832 256.6556,576.0326 257.6511,575.6839 258.5554,575.1601 259.365,574.4616 260.1748,573.7632 260.8313,572.9301 261.3351,571.9623 261.7937,571.0813 262.1265,570.0889 262.3343,568.9845 Z M 274.1468,553.4861 L 277.9775,553.4861 C 278.1731,553.4861 278.3319,553.6449 278.3319,553.8404 L 278.3319,562.8889 288.2452,562.8889 288.2452,553.8404 C 288.2452,553.6449 288.4039,553.4861 288.5995,553.4861 L 292.4303,553.4861 C 292.6259,553.4861 292.7846,553.6449 292.7846,553.8404 L 292.7846,576.4337 C 292.7846,576.6293 292.6259,576.788 292.4303,576.788 L 288.5995,576.788 C 288.4039,576.788 288.2452,576.6293 288.2452,576.4337 L 288.2452,566.7755 278.3319,566.7755 278.3319,576.4337 C 278.3319,576.6293 278.1731,576.788 277.9775,576.788 L 274.1468,576.788 C 273.9512,576.788 273.7925,576.6293 273.7925,576.4337 L 273.7925,553.8404 C 273.7925,553.6449 273.9512,553.4861 274.1468,553.4861 Z M 277.6232,554.1948 L 274.5011,554.1948 274.5011,576.0794 277.6232,576.0794 277.6232,566.4212 C 277.6232,566.2256 277.782,566.0668 277.9775,566.0668 L 288.5995,566.0668 C 288.7951,566.0668 288.9539,566.2256 288.9539,566.4212 L 288.9539,576.0794 292.0759,576.0794 292.0759,554.1948 288.9539,554.1948 288.9539,563.2432 C 288.9539,563.4388 288.7951,563.5976 288.5995,563.5976 L 277.9775,563.5976 C 277.782,563.5976 277.6232,563.4388 277.6232,563.2432 L 277.6232,554.1948 Z M 306.3212,553.4861 L 315.1363,553.4861 C 316.2263,553.4861 317.183,553.5326 318.0047,553.625 318.8361,553.7186 319.5292,553.86 320.082,554.0494 L 320.108,554.0593 C 320.6608,554.2526 321.1756,554.523 321.6495,554.87 322.1254,555.2186 322.5634,555.6472 322.9603,556.1549 323.3673,556.6745 323.6717,557.2423 323.8739,557.8591 324.0751,558.4742 324.1755,559.137 324.1755,559.8479 324.1755,560.4134 324.1159,560.9463 323.9986,561.443 323.8801,561.9453 323.7004,562.4121 323.4623,562.8416 323.2213,563.2733 322.9223,563.6696 322.5645,564.0284 322.3587,564.2345 322.1334,564.4293 321.8882,564.6112 322.2105,564.766 322.5152,564.9514 322.8024,565.1677 323.2723,565.5212 323.693,565.9546 324.0643,566.4677 L 324.0763,566.4852 C 324.4402,566.9938 324.7149,567.5525 324.8983,568.1582 325.084,568.7671 325.1767,569.4228 325.1767,570.1215 L 325.1735,570.1677 C 325.1001,571.2724 324.8626,572.2404 324.4635,573.0687 324.0561,573.9148 323.4807,574.6144 322.74,575.1649 L 322.7275,575.174 C 322.0002,575.7151 321.1121,576.1199 320.0658,576.3883 319.026,576.6551 317.8324,576.788 316.4859,576.788 L 306.3212,576.788 C 306.1256,576.788 305.9668,576.6293 305.9668,576.4337 L 305.9668,553.8404 C 305.9668,553.6449 306.1256,553.4861 306.3212,553.4861 Z M 315.1363,554.1948 L 306.6755,554.1948 306.6755,576.0794 316.4859,576.0794 C 317.7808,576.0794 318.9166,575.9546 319.8912,575.7046 320.8479,575.4594 321.6538,575.0932 322.3069,574.6071 L 322.3193,574.5974 C 322.9656,574.1169 323.4694,573.5044 323.8268,572.7614 324.186,572.0159 324.4005,571.1349 324.468,570.1212 324.468,569.4914 324.3858,568.9046 324.2217,568.3629 324.0629,567.834 323.8226,567.3453 323.5039,566.8994 L 323.4912,566.8826 C 323.1592,566.4237 322.7882,566.0399 322.3789,565.7323 321.9701,565.4248 321.5186,565.1878 321.0245,565.0223 320.9471,564.9962 320.8788,564.9437 320.8337,564.8686 320.7336,564.7014 320.7881,564.4843 320.9553,564.3842 321.3794,564.1311 321.7487,563.8456 322.0634,563.5301 322.376,563.2163 322.6365,562.8719 322.8449,562.4986 323.0498,562.1292 323.2052,561.7233 323.3092,561.2825 323.4138,560.84 323.4668,560.361 323.4668,559.8479 323.4668,559.2101 323.3781,558.6202 323.2009,558.078 323.024,557.538 322.7584,557.0419 322.4041,556.5898 322.0489,556.1354 321.6572,555.7521 321.2317,555.4403 320.8122,555.1333 320.3597,554.8949 319.8764,554.7257 L 319.8552,554.7195 C 319.3489,554.5463 318.7057,554.4156 317.9271,554.328 317.1387,554.2393 316.2081,554.1948 315.1363,554.1948 Z M 310.5062,563.0196 L 314.2151,563.0196 C 315.0153,563.0196 315.6885,562.9983 316.2314,562.9572 316.7688,562.9161 317.1781,562.8569 317.4559,562.7803 317.7289,562.7015 317.9874,562.5862 318.2295,562.4328 318.4758,562.2769 318.708,562.081 318.9249,561.8443 L 318.9268,561.8421 C 319.1355,561.6167 319.2917,561.3698 319.394,561.1039 319.4972,560.8346 319.549,560.5393 319.549,560.2178 319.549,559.6744 319.4566,559.2209 319.2732,558.8572 319.0958,558.5054 318.8293,558.2293 318.4758,558.0295 318.09,557.8152 317.5586,557.6519 316.8828,557.5419 316.188,557.4288 315.3396,557.3724 314.3384,557.3724 L 310.5062,557.3724 310.5062,563.0196 Z M 314.2151,563.7283 L 310.1519,563.7283 C 309.9563,563.7283 309.7976,563.5695 309.7976,563.3739 L 309.7976,557.0181 C 309.7976,556.8225 309.9563,556.6637 310.1519,556.6637 L 314.3384,556.6637 C 315.3688,556.6637 316.2549,556.7238 316.9962,556.8446 317.7564,556.9685 318.365,557.1581 318.8211,557.4132 319.3013,557.6862 319.6633,558.0607 319.9042,558.5386 320.1395,559.0049 320.2577,559.5647 320.2577,560.2178 320.2577,560.6223 320.1891,561.003 320.0528,561.3571 319.9156,561.7114 319.7126,562.0343 319.4439,562.3234 319.1822,562.6071 318.9027,562.843 318.606,563.0309 318.3046,563.2217 317.9854,563.3646 317.6495,563.4604 317.3204,563.5508 316.8652,563.6188 316.2841,563.6631 315.7163,563.7061 315.0258,563.7283 314.2151,563.7283 Z M 310.5062,572.9451 L 315.18,572.9451 C 316.2427,572.9451 317.1353,572.8836 317.8548,572.7617 318.5518,572.6438 319.0839,572.4706 319.4481,572.2444 L 319.4603,572.2373 C 319.7991,572.0207 320.0581,571.7282 320.237,571.36 320.4258,570.9705 320.5301,570.4957 320.5511,569.9327 320.5502,569.2921 320.3425,568.6892 319.9277,568.1373 319.7157,567.8609 319.4748,567.6358 319.2058,567.464 318.9387,567.2937 318.6383,567.1721 318.3063,567.1012 L 318.2791,567.0944 C 317.9285,567.0184 317.4659,566.9609 316.8933,566.922 316.3062,566.8824 315.599,566.8625 314.7738,566.8625 L 310.5062,566.8625 310.5062,572.9451 Z M 315.18,573.6538 L 310.1519,573.6538 C 309.9563,573.6538 309.7976,573.495 309.7976,573.2994 L 309.7976,566.5082 C 309.7976,566.3126 309.9563,566.1539 310.1519,566.1539 L 314.7738,566.1539 C 315.6024,566.1539 316.3252,566.1746 316.9403,566.2162 317.5438,566.257 318.0424,566.3203 318.4319,566.4053 L 318.4532,566.409 C 318.8662,566.4971 319.244,566.6511 319.585,566.8688 319.9266,567.087 320.2282,567.3674 320.489,567.7084 L 320.4904,567.7112 C 321.0024,568.3915 321.2589,569.1376 321.2589,569.9327 L 321.2575,569.9438 C 321.234,570.6164 321.1061,571.1907 320.8737,571.6687 320.6353,572.1571 320.2914,572.5451 319.8399,572.8334 L 319.8217,572.8453 C 319.3798,573.1197 318.7621,573.3252 317.971,573.459 317.2068,573.5886 316.2759,573.6538 315.18,573.6538 Z M 351.9082,567.8124 L 355.6519,568.3348 C 355.8453,568.3615 355.9802,568.5401 355.9535,568.7334 L 355.949,568.7586 C 355.7356,570.079 355.3603,571.2557 354.822,572.2889 354.278,573.3343 353.5662,574.2363 352.6858,574.9957 351.8076,575.7531 350.8265,576.3217 349.7468,576.6999 348.6677,577.078 347.4916,577.2668 346.2222,577.2668 344.6351,577.2668 343.1985,577.0054 341.9158,576.4839 340.6286,575.9603 339.4979,575.1746 338.5267,574.128 337.5519,573.0812 336.8217,571.8107 336.3369,570.318 335.8565,568.8377 335.6161,567.1389 335.6161,565.2241 335.6161,563.9859 335.7201,562.8229 335.9268,561.7346 336.1343,560.6416 336.4455,559.6265 336.858,558.6894 337.2763,557.7426 337.8064,556.9115 338.4473,556.1986 339.0868,555.4874 339.8372,554.8941 340.6975,554.4227 L 340.7148,554.4139 C 341.5618,553.9465 342.4436,553.595 343.3606,553.3611 344.2864,553.1253 345.2499,553.0071 346.2514,553.0071 347.5086,553.0071 348.6589,553.1675 349.698,553.4887 350.7418,553.8112 351.6698,554.2957 352.4788,554.942 353.2941,555.5903 353.9642,556.3763 354.4866,557.2973 355.0056,558.212 355.3781,559.2589 355.6029,560.4344 355.6395,560.6263 355.5136,560.8117 355.3217,560.8483 L 351.6077,561.4169 C 351.4204,561.4449 351.2449,561.3205 351.2081,561.1368 351.038,560.4148 350.805,559.7838 350.5085,559.2447 350.2157,558.7121 349.8599,558.2682 349.4401,557.9121 349.0228,557.5586 348.5619,557.2925 348.0593,557.1162 347.5553,556.9393 347.0031,556.8503 346.4036,556.8503 345.4869,556.8503 344.6595,557.0127 343.921,557.3367 343.1866,557.6593 342.5326,558.1468 341.9609,558.7974 L 341.9453,558.8138 C 341.3869,559.4638 340.9645,560.3031 340.6805,561.3324 340.3885,562.3897 340.2425,563.6503 340.2425,565.1152 340.2425,566.6031 340.3837,567.8813 340.6654,568.9497 340.9418,569.9976 341.3537,570.8443 341.8994,571.4892 L 341.9022,571.4926 C 342.4516,572.1361 343.0811,572.6191 343.7901,572.9403 344.5007,573.2623 345.2975,573.4239 346.1788,573.4239 346.8932,573.4239 347.5446,573.3167 348.1316,573.1024 348.7139,572.8895 349.2388,572.5687 349.7049,572.1395 L 349.725,572.1225 C 350.1833,571.7021 350.5609,571.1641 350.8566,570.5096 351.1624,569.8329 351.3804,569.0336 351.5097,568.114 351.5363,567.9207 351.7149,567.7858 351.9082,567.8124 Z M 355.193,568.9845 L 352.1557,568.5608 C 352.0128,569.4052 351.7946,570.1527 351.5017,570.8004 351.1675,571.5405 350.733,572.1554 350.2006,572.6435 L 350.1839,572.6599 C 349.6493,573.152 349.0452,573.5208 348.3726,573.7669 347.7047,574.0109 346.9731,574.1325 346.1788,574.1325 345.1972,574.1325 344.3034,573.9497 343.4992,573.5854 342.6953,573.2212 341.9841,572.6769 341.367,571.9544 L 341.3597,571.9462 C 340.7454,571.2202 340.2856,570.2811 339.9817,569.1294 339.6832,567.9981 339.5339,566.6601 339.5339,565.1152 339.5339,563.5919 339.6892,562.2687 339.9996,561.1442 340.3117,560.0126 340.7825,559.0828 341.4104,558.3532 L 341.4291,558.3297 C 342.0686,557.6023 342.8053,557.0549 343.6387,556.6887 344.469,556.3244 345.3905,556.1416 346.4036,556.1416 347.0794,556.1416 347.709,556.2445 348.2918,556.4489 348.8786,556.6547 349.4143,556.9634 349.897,557.3724 350.384,557.7854 350.7942,558.2959 351.1287,558.904 351.413,559.4207 351.6432,560.0092 351.8198,560.6683 L 354.833,560.2071 C 354.6193,559.2523 354.2987,558.3983 353.8721,557.646 353.3956,556.8055 352.7836,556.088 352.0389,555.4959 351.2976,554.9037 350.447,554.4595 349.4906,554.1639 348.5237,553.8651 347.4425,553.7157 346.2514,553.7157 345.3086,553.7157 344.4032,553.8266 343.5352,554.0477 342.6729,554.2671 341.8472,554.5953 341.0595,555.0304 L 341.0382,555.0429 C 340.2482,555.4757 339.5597,556.02 338.9734,556.672 338.3833,557.3285 337.894,558.0969 337.506,558.9746 337.1139,559.8649 336.8183,560.8284 336.6218,561.8645 336.4243,562.9051 336.3248,564.0248 336.3248,565.2241 336.3248,567.0669 336.5532,568.6923 337.0099,570.0991 337.4626,571.4935 338.1409,572.6764 339.0443,573.6461 339.9443,574.6158 340.9909,575.3435 342.1817,575.8279 343.3782,576.3144 344.7255,576.5581 346.2222,576.5581 347.4156,576.5581 348.5137,576.3832 349.5144,576.0326 350.5099,575.6839 351.4141,575.1601 352.2237,574.4616 353.0336,573.7632 353.6901,572.9301 354.1938,571.9623 354.6524,571.0813 354.9855,570.0889 355.193,568.9845 Z"
         style="fill-rule:evenodd;fill:#2d2c2b;" />
      <path
         id="path36"
         d="M 298.619,462.2875 C 312.7609,462.2875 324.2263,473.7629 324.2263,487.917 324.2263,502.0712 312.7609,513.5466 298.619,513.5466 284.4771,513.5466 273.0117,502.0712 273.0117,487.917 273.0117,473.7629 284.4771,462.2875 298.619,462.2875 Z M 298.619,465.7344 C 310.8588,465.7344 320.7824,475.6666 320.7824,487.917 320.7824,500.1675 310.8588,510.0997 298.619,510.0997 286.3792,510.0997 276.4556,500.1675 276.4556,487.917 276.4556,475.6666 286.3792,465.7344 298.619,465.7344 Z"
         style="fill-rule:evenodd;fill:#00a1e2;" />
      <path
         id="path38"
         d="M 319.7963,404.0961 C 334.0,404.0961 345.5155,415.6117 345.5155,429.8154 345.5155,444.0191 334.0,455.5346 319.7963,455.5346 305.5926,455.5346 294.077,444.0191 294.077,429.8154 294.077,415.6117 305.5926,404.0961 319.7963,404.0961 Z M 319.7963,407.5551 C 332.0895,407.5551 342.0566,417.5221 342.0566,429.8154 342.0566,442.1086 332.0895,452.0757 319.7963,452.0757 307.503,452.0757 297.536,442.1086 297.536,429.8154 297.536,417.5221 307.503,407.5551 319.7963,407.5551 Z"
         style="fill-rule:evenodd;fill:#e31c2a;" />
      <path
         id="path40"
         d="M 269.4338,439.8051 C 283.7091,439.8051 295.2828,451.3787 295.2828,465.6541 295.2828,479.9295 283.7091,491.5031 269.4338,491.5031 255.1584,491.5031 243.5848,479.9295 243.5848,465.6541 243.5848,451.3787 255.1584,439.8051 269.4338,439.8051 Z M 269.4338,443.2815 C 281.7891,443.2815 291.8064,453.2988 291.8064,465.6541 291.8064,478.0094 281.7891,488.0267 269.4338,488.0267 257.0785,488.0267 247.0612,478.0094 247.0612,465.6541 247.0612,453.2988 257.0785,443.2815 269.4338,443.2815 Z"
         style="fill-rule:evenodd;fill:#ffed00;" />
      <path
         id="path42"
         d="M 280.3905,404.0961 C 294.5942,404.0961 306.1097,415.6117 306.1097,429.8154 306.1097,444.0191 294.5942,455.5346 280.3905,455.5346 266.1868,455.5346 254.6712,444.0191 254.6712,429.8154 254.6712,415.6117 266.1868,404.0961 280.3905,404.0961 Z M 280.3905,407.5551 C 292.6838,407.5551 302.6508,417.5221 302.6508,429.8154 302.6508,442.1086 292.6838,452.0757 280.3905,452.0757 268.0972,452.0757 258.1302,442.1086 258.1302,429.8154 258.1302,417.5221 268.0972,407.5551 280.3905,407.5551 Z"
         style="fill-rule:evenodd;fill:#000000;" />
      <path
         id="path44"
         d="M 329.2058,440.6659 C 343.3978,440.6659 354.9039,452.172 354.9039,466.3641 354.9039,480.5561 343.3978,492.0622 329.2058,492.0622 315.0137,492.0622 303.5076,480.5561 303.5076,466.3641 303.5076,452.172 315.0137,440.6659 329.2058,440.6659 Z M 329.2058,444.122 C 341.4889,444.122 351.4478,454.0809 351.4478,466.3641 351.4478,478.6472 341.4889,488.6061 329.2058,488.6061 316.9226,488.6061 306.9637,478.6472 306.9637,466.3641 306.9637,454.0809 316.9226,444.122 329.2058,444.122 Z"
         style="fill-rule:evenodd;fill:#45ab36;" />
      <path
         id="path46"
         d="M 332.7369,452.0228 C 325.7983,456.029 317.7737,456.4519 310.8059,453.8662 308.8443,456.7484 307.542,460.1149 307.1163,463.7492 317.037,467.2443 324.1403,476.6173 324.1403,487.6328 324.1403,487.7637 324.1392,487.8941 324.1372,488.0248 L 324.2279,488.0466 324.2276,488.0472 324.0726,491.5488 C 312.3397,489.17 303.5078,478.7983 303.5078,466.3641 L 303.5083,466.2522 C 301.9059,465.8873 300.2372,465.6949 298.5231,465.6949 297.455,465.6949 296.4053,465.7714 295.3774,465.9157 295.2496,478.7966 285.6997,489.4226 273.2893,491.2302 L 273.2754,490.9606 273.1303,490.9949 C 272.9829,489.8948 272.9055,488.7729 272.9055,487.6328 272.9055,475.9486 280.8975,466.1118 291.767,463.1786 290.5347,451.9882 281.05,443.2816 269.5317,443.2816 266.1324,443.2816 262.9106,444.041 260.0252,445.3977 L 260.0249,445.3965 258.0928,442.4698 C 261.5414,440.765 265.4243,439.8052 269.5317,439.8052 282.7389,439.8052 293.6322,449.712 295.1884,462.4994 296.2797,462.3588 297.3929,462.2859 298.5231,462.2859 300.3146,462.2859 302.0632,462.4682 303.751,462.8151 304.2748,459.0264 305.625,455.5012 307.6129,452.4276 303.4996,450.2313 299.9293,446.8969 297.4266,442.5616 291.858,432.9164 293.214,421.1742 299.9497,413.0881 L 300.06,413.2446 302.0363,416.0477 C 296.7182,423.0105 295.7834,432.7628 300.4373,440.8234 302.6985,444.7397 305.966,447.713 309.7239,449.6066 314.4365,444.1323 321.4162,440.6661 329.2058,440.6661 333.6165,440.6661 337.7679,441.7781 341.3948,443.736 L 341.2287,443.9548 341.3109,443.9959 C 339.1767,447.1965 336.2939,449.9691 332.7369,452.0228 Z M 306.9853,467.3511 C 307.3714,476.189 312.9157,483.6881 320.682,486.9133 320.3938,478.0735 314.8197,470.5554 306.9853,467.3511 Z M 291.8801,466.6975 C 283.0861,469.4267 276.6515,477.4306 276.3621,486.9621 285.0605,484.1756 291.4432,476.2125 291.8801,466.6975 Z M 313.1354,450.9882 C 318.8954,452.7876 325.3612,452.2669 330.9987,449.0121 332.8614,447.9367 334.5109,446.6333 335.9322,445.1579 333.8101,444.4852 331.5504,444.1221 329.2058,444.1221 322.8874,444.1221 317.1844,446.7574 313.1354,450.9882 Z M 288.5902,454.182 C 285.9999,455.0596 283.2239,455.5346 280.3374,455.5346 271.9916,455.5346 264.5751,451.5579 259.8763,445.3968 260.9677,444.8837 262.1069,444.4557 263.2856,444.1224 267.3689,448.9843 273.492,452.0758 280.3374,452.0758 282.4651,452.0758 284.523,451.7773 286.4716,451.2195 287.2545,452.1458 287.964,453.136 288.5902,454.182 Z M 300.0407,446.3447 C 297.786,449.0289 294.9931,451.2458 291.8282,452.8293 291.2479,451.8159 290.5999,450.8464 289.8924,449.9252 293.0556,448.4194 295.8072,446.1894 297.9337,443.4497 298.5695,444.4642 299.274,445.4317 300.0407,446.3447 Z M 302.1471,416.1818 C 304.6235,420.1342 306.0567,424.8074 306.0567,429.8153 306.0567,434.8236 304.6246,439.4971 302.1477,443.4497 301.3546,442.4275 300.649,441.3342 300.041,440.1816 301.6735,437.0856 302.5979,433.5585 302.5979,429.8153 302.5979,426.0725 301.6729,422.5459 300.0404,419.4505 300.6485,418.2973 301.354,417.204 302.1471,416.1818 Z"
         style="fill-rule:evenodd;fill:#ffffff;" />
      <path
         id="path48"
         d="M 269.299,439.5572 C 276.5871,439.5572 283.1865,442.478 287.9634,447.1997 292.7418,451.9227 295.6978,458.4478 295.6978,465.654 295.6978,472.86 292.7418,479.3845 287.9631,484.1076 283.1862,488.8293 276.5871,491.7501 269.299,491.7501 262.0106,491.7501 255.4109,488.8293 250.6337,484.1079 245.8551,479.3848 242.8991,472.8597 242.8991,465.654 242.8991,458.4478 245.8551,451.9227 250.6337,447.1997 255.4109,442.478 262.0106,439.5572 269.299,439.5572 Z M 287.5671,447.6027 C 282.8928,442.9826 276.4335,440.1241 269.299,440.1241 262.1642,440.1241 255.7049,442.9823 251.03,447.6027 246.3568,452.2215 243.466,458.604 243.466,465.654 243.466,472.7035 246.3568,479.086 251.03,483.7048 255.7046,488.3247 262.1642,491.1831 269.299,491.1831 276.4335,491.1831 282.8925,488.3247 287.5669,483.7045 292.2401,479.0857 295.1308,472.7035 295.1308,465.654 295.1308,458.604 292.2401,452.2218 287.5671,447.6027 Z M 269.299,443.2303 C 275.5613,443.2303 281.2314,445.7398 285.3357,449.797 289.4417,453.8554 291.9815,459.4623 291.9815,465.654 291.9815,471.8458 289.4414,477.4521 285.3357,481.5105 281.2311,485.5674 275.5607,488.0769 269.299,488.0769 263.0364,488.0769 257.3663,485.5674 253.2617,481.5108 249.1554,477.4524 246.6156,471.8458 246.6156,465.654 246.6156,459.4623 249.1554,453.8551 253.2614,449.7968 257.366,445.7398 263.0367,443.2303 269.299,443.2303 Z M 284.9394,450.2001 C 280.9375,446.2441 275.4074,443.7972 269.299,443.7972 263.1903,443.7972 257.6599,446.2441 253.6577,450.1998 249.6572,454.1539 247.1825,459.6182 247.1825,465.654 247.1825,471.6896 249.6572,477.1536 253.658,481.1077 257.6599,485.0631 263.19,487.51 269.299,487.51 275.4071,487.51 280.9372,485.0631 284.9394,481.1074 288.94,477.1531 291.4146,471.6893 291.4146,465.654 291.4146,459.6182 288.94,454.1542 284.9394,450.2001 Z"
         style="fill-rule:evenodd;fill:#2d2c2b;" />
      <path
         id="path50"
         d="M 319.6423,403.7185 C 326.848,403.7185 333.3728,406.6398 338.095,411.3621 342.8169,416.0846 345.7383,422.6088 345.7383,429.8153 345.7383,437.0213 342.8169,443.5455 338.0947,448.2677 333.3725,452.99 326.8483,455.9114 319.6423,455.9114 312.4358,455.9114 305.9113,452.99 301.189,448.268 296.4665,443.5458 293.5451,437.021 293.5451,429.8153 293.5451,422.6088 296.4665,416.0843 301.1888,411.3621 305.9113,406.6398 312.4358,403.7185 319.6423,403.7185 Z M 337.6942,411.7629 C 333.0746,407.1433 326.6918,404.2854 319.6423,404.2854 312.5925,404.2854 306.2095,407.1433 301.5896,411.7629 296.97,416.3825 294.1121,422.7656 294.1121,429.8153 294.1121,436.8648 296.97,443.2476 301.5899,447.8672 306.2095,452.4866 312.5925,455.3444 319.6423,455.3444 326.6915,455.3444 333.0743,452.4866 337.6939,447.8669 342.3135,443.2473 345.1714,436.8645 345.1714,429.8153 345.1714,422.7656 342.3135,416.3828 337.6942,411.7629 Z M 319.6423,407.3916 C 325.834,407.3916 331.4404,409.9017 335.4976,413.9595 339.5551,418.017 342.0652,423.6231 342.0652,429.8153 342.0652,436.0073 339.5551,441.6131 335.4976,445.6706 331.4401,449.7282 325.8343,452.2382 319.6423,452.2382 313.4506,452.2382 307.8437,449.7282 303.7861,445.6709 299.7283,441.6134 297.2183,436.0073 297.2183,429.8153 297.2183,423.6236 299.7283,418.0167 303.7859,413.9592 307.8437,409.9017 313.4506,407.3916 319.6423,407.3916 Z M 335.0968,414.3603 C 331.1422,410.4051 325.6778,407.9585 319.6423,407.9585 313.6065,407.9585 308.1419,410.4051 304.1867,414.36 300.2318,418.3149 297.7852,423.7795 297.7852,429.8153 297.7852,435.8509 300.2318,441.3152 304.187,445.2701 308.1419,449.2247 313.6065,451.6713 319.6423,451.6713 325.6775,451.6713 331.1419,449.2247 335.0968,445.2698 339.0517,441.3149 341.4983,435.8506 341.4983,429.8153 341.4983,423.7798 339.0517,418.3152 335.0968,414.3603 Z"
         style="fill-rule:evenodd;fill:#2d2c2b;" />
      <path
         id="path52"
         d="M 280.4122,403.7185 C 287.6185,403.7185 294.1427,406.6398 298.8649,411.3621 303.5871,416.0843 306.5083,422.6091 306.5083,429.8153 306.5083,437.0213 303.5869,443.5455 298.8646,448.2677 294.1427,452.99 287.6179,455.9114 280.4122,455.9114 273.206,455.9114 266.6815,452.99 261.959,448.268 257.2367,443.5458 254.3153,437.021 254.3153,429.8153 254.3153,422.6088 257.2367,416.0843 261.959,411.3621 266.6812,406.6398 273.2057,403.7185 280.4122,403.7185 Z M 298.4641,411.7629 C 293.8445,407.1433 287.4617,404.2854 280.4122,404.2854 273.3625,404.2854 266.9794,407.1433 262.3598,411.7629 257.7402,416.3825 254.8823,422.7656 254.8823,429.8153 254.8823,436.8648 257.7402,443.2476 262.3598,447.8672 266.9797,452.4866 273.3627,455.3444 280.4122,455.3444 287.4617,455.3444 293.8445,452.4866 298.4638,447.8669 303.0834,443.2473 305.9413,436.8645 305.9413,429.8153 305.9413,422.7653 303.0837,416.3825 298.4641,411.7629 Z M 280.4122,407.3916 C 286.6039,407.3916 292.2103,409.9017 296.2675,413.9595 300.325,418.017 302.8351,423.6231 302.8351,429.8153 302.8351,436.0073 300.325,441.6131 296.2675,445.6706 292.21,449.7282 286.6037,452.2382 280.4122,452.2382 274.2199,452.2382 268.6139,449.7282 264.5563,445.6706 260.4986,441.6134 257.9885,436.0071 257.9885,429.8153 257.9885,423.6236 260.4986,418.0167 264.5561,413.9592 268.6136,409.9017 274.2205,407.3916 280.4122,407.3916 Z M 295.8667,414.3603 C 291.9121,410.4051 286.4477,407.9585 280.4122,407.9585 274.3764,407.9585 268.9118,410.4051 264.9569,414.36 261.002,418.3149 258.5554,423.7795 258.5554,429.8153 258.5554,435.8509 261.002,441.3152 264.9572,445.2698 268.9121,449.2247 274.3767,451.6713 280.4122,451.6713 286.4475,451.6713 291.9118,449.2247 295.8667,445.2698 299.8216,441.3149 302.2682,435.8506 302.2682,429.8153 302.2682,423.7798 299.8216,418.3152 295.8667,414.3603 Z"
         style="fill-rule:evenodd;fill:#2d2c2b;" />
      <path
         id="path54"
         d="M 329.0513,440.2675 C 336.257,440.2675 342.7818,443.1889 347.504,447.9114 352.226,452.6337 355.1474,459.1582 355.1474,466.3647 355.1474,473.5706 352.226,480.0949 347.5037,484.8171 342.7815,489.5393 336.2573,492.4607 329.0513,492.4607 321.8448,492.4607 315.3203,489.5393 310.5981,484.8174 305.8756,480.0951 302.9542,473.5704 302.9542,466.3647 302.9542,459.1582 305.8756,452.6337 310.5978,447.9111 315.3203,443.1889 321.8448,440.2675 329.0513,440.2675 Z M 347.1032,448.3123 C 342.4836,443.6923 336.1008,440.8345 329.0513,440.8345 322.0016,440.8345 315.6185,443.6923 310.9986,448.312 306.379,452.9319 303.5211,459.3149 303.5211,466.3647 303.5211,473.4142 306.379,479.7969 310.9989,484.4166 315.6185,489.0359 322.0016,491.8938 329.0513,491.8938 336.1005,491.8938 342.4833,489.0359 347.1029,484.4163 351.7226,479.7967 354.5804,473.4139 354.5804,466.3647 354.5804,459.3149 351.7226,452.9319 347.1032,448.3123 Z M 329.0513,443.9407 C 335.2433,443.9407 340.8491,446.4507 344.9066,450.5085 348.9639,454.566 351.474,460.173 351.474,466.3647 351.474,472.5567 348.9639,478.1625 344.9066,482.22 340.8491,486.2772 335.2433,488.7873 329.0513,488.7873 322.8596,488.7873 317.2527,486.2772 313.1952,482.22 309.1374,478.1625 306.6273,472.5567 306.6273,466.3647 306.6273,460.173 309.1374,454.566 313.1949,450.5083 317.2527,446.4507 322.8596,443.9407 329.0513,443.9407 Z M 344.5058,450.9094 C 340.5509,446.9542 335.0866,444.5076 329.0513,444.5076 323.0155,444.5076 317.5509,446.9542 313.5957,450.9091 309.6408,454.8643 307.1942,460.3289 307.1942,466.3647 307.1942,472.3999 309.6408,477.8643 313.596,481.8192 317.5509,485.7738 323.0155,488.2204 329.0513,488.2204 335.0866,488.2204 340.5509,485.7738 344.5058,481.8192 348.4604,477.8643 350.907,472.3999 350.907,466.3647 350.907,460.3289 348.4604,454.8643 344.5058,450.9094 Z"
         style="fill-rule:evenodd;fill:#2d2c2b;" />
      <path
         id="path56"
         d="M 298.4156,461.8193 C 305.6213,461.8193 312.1461,464.7407 316.8683,469.463 321.5903,474.1855 324.5117,480.71 324.5117,487.9162 324.5117,495.1219 321.5903,501.6467 316.868,506.3689 312.1458,511.0911 305.6216,514.0125 298.4156,514.0125 291.2091,514.0125 284.6846,511.0911 279.9624,506.3689 275.2398,501.6467 272.3185,495.1225 272.3185,487.9162 272.3185,480.7097 275.2398,474.1852 279.9621,469.463 284.6846,464.7407 291.2091,461.8193 298.4156,461.8193 Z M 316.4675,469.8638 C 311.8479,465.2442 305.4651,462.3863 298.4156,462.3863 291.3659,462.3863 284.9828,465.2442 280.3629,469.8638 275.7433,474.4834 272.8854,480.8665 272.8854,487.9162 272.8854,494.9657 275.7433,501.3485 280.3632,505.9681 284.9828,510.5877 291.3659,513.4456 298.4156,513.4456 305.4648,513.4456 311.8476,510.5877 316.4672,505.9681 321.0868,501.3485 323.9447,494.9657 323.9447,487.9162 323.9447,480.8667 321.0868,474.4837 316.4675,469.8638 Z M 298.4156,465.4925 C 304.6073,465.4925 310.2137,468.0026 314.2709,472.0603 318.3284,476.1179 320.8385,481.7239 320.8385,487.9162 320.8385,494.1082 318.3284,499.7143 314.2709,503.7715 310.2134,507.829 304.6076,510.3391 298.4156,510.3391 292.2233,510.3391 286.617,507.829 282.5595,503.7718 278.502,499.7143 275.9919,494.1082 275.9919,487.9162 275.9919,481.7245 278.502,476.1176 282.5595,472.0601 286.617,468.0026 292.2239,465.4925 298.4156,465.4925 Z M 313.8701,472.4612 C 309.9155,468.506 304.4511,466.0594 298.4156,466.0594 292.3798,466.0594 286.9152,468.506 282.9603,472.4609 279.0054,476.4158 276.5588,481.8804 276.5588,487.9162 276.5588,493.9517 279.0054,499.4161 282.9603,503.371 286.9152,507.3256 292.3801,509.7722 298.4156,509.7722 304.4509,509.7722 309.9152,507.3256 313.8701,503.3707 317.825,499.4161 320.2716,493.9517 320.2716,487.9162 320.2716,481.8807 317.825,476.4161 313.8701,472.4612 Z"
         style="fill-rule:evenodd;fill:#2d2c2b;" />
      <path
         id="path58"
         d="M 319.8535,403.7185 C 327.0591,403.7185 333.5839,406.6398 338.3062,411.3621 343.0281,416.0846 345.9495,422.6088 345.9495,429.8153 345.9495,437.0213 343.0281,443.5455 338.3059,448.2677 333.5837,452.99 327.0594,455.9114 319.8535,455.9114 312.647,455.9114 306.1225,452.99 301.4002,448.268 296.6777,443.5458 293.7563,437.021 293.7563,429.8153 293.7563,422.6088 296.6777,416.0843 301.3999,411.3621 306.1225,406.6398 312.647,403.7185 319.8535,403.7185 Z M 337.9054,411.7629 C 333.2857,407.1433 326.903,404.2854 319.8535,404.2854 312.8037,404.2854 306.4207,407.1433 301.8008,411.7629 297.1811,416.3825 294.3232,422.7656 294.3232,429.8153 294.3232,436.8648 297.1811,443.2476 301.801,447.8672 306.4207,452.4866 312.8037,455.3444 319.8535,455.3444 326.9027,455.3444 333.2854,452.4866 337.9051,447.8669 342.5247,443.2473 345.3826,436.8645 345.3826,429.8153 345.3826,422.7656 342.5247,416.3828 337.9054,411.7629 Z M 319.8535,407.3916 C 326.0452,407.3916 331.6516,409.9017 335.7088,413.9595 339.7663,418.017 342.2764,423.6231 342.2764,429.8153 342.2764,436.0073 339.7663,441.6131 335.7088,445.6706 331.6513,449.7282 326.0455,452.2382 319.8535,452.2382 313.6618,452.2382 308.0548,449.7282 303.9973,445.6709 299.9395,441.6134 297.4294,436.0073 297.4294,429.8153 297.4294,423.6236 299.9395,418.0167 303.997,413.9592 308.0548,409.9017 313.6618,407.3916 319.8535,407.3916 Z M 335.308,414.3603 C 331.3534,410.4051 325.889,407.9585 319.8535,407.9585 313.8177,407.9585 308.353,410.4051 304.3979,414.36 300.443,418.3149 297.9964,423.7795 297.9964,429.8153 297.9964,435.8509 300.443,441.3152 304.3981,445.2701 308.353,449.2247 313.8177,451.6713 319.8535,451.6713 325.8887,451.6713 331.3531,449.2247 335.308,445.2698 339.2629,441.3149 341.7094,435.8506 341.7094,429.8153 341.7094,423.7798 339.2629,418.3152 335.308,414.3603 Z"
         style="fill-rule:evenodd;fill:#2d2c2b;" />
      <path
         id="path60"
         d="M 280.6234,403.7185 C 287.8296,403.7185 294.3539,406.6398 299.0761,411.3621 303.7983,416.0843 306.7194,422.6091 306.7194,429.8153 306.7194,437.0213 303.798,443.5455 299.0758,448.2677 294.3539,452.99 287.8291,455.9114 280.6234,455.9114 273.4172,455.9114 266.8927,452.99 262.1701,448.268 257.4479,443.5458 254.5265,437.021 254.5265,429.8153 254.5265,422.6088 257.4479,416.0843 262.1701,411.3621 266.8924,406.6398 273.4169,403.7185 280.6234,403.7185 Z M 298.6753,411.7629 C 294.0557,407.1433 287.6729,404.2854 280.6234,404.2854 273.5736,404.2854 267.1906,407.1433 262.571,411.7629 257.9513,416.3825 255.0934,422.7656 255.0934,429.8153 255.0934,436.8648 257.9513,443.2476 262.571,447.8672 267.1909,452.4866 273.5739,455.3444 280.6234,455.3444 287.6729,455.3444 294.0557,452.4866 298.675,447.8669 303.2946,443.2473 306.1525,436.8645 306.1525,429.8153 306.1525,422.7653 303.2949,416.3825 298.6753,411.7629 Z M 280.6234,407.3916 C 286.8151,407.3916 292.4215,409.9017 296.4787,413.9595 300.5362,418.017 303.0463,423.6231 303.0463,429.8153 303.0463,436.0073 300.5362,441.6131 296.4787,445.6706 292.4212,449.7282 286.8148,452.2382 280.6234,452.2382 274.4311,452.2382 268.825,449.7282 264.7675,445.6706 260.7097,441.6134 258.1997,436.0071 258.1997,429.8153 258.1997,423.6236 260.7097,418.0167 264.7672,413.9592 268.8248,409.9017 274.4317,407.3916 280.6234,407.3916 Z M 296.0779,414.3603 C 292.1233,410.4051 286.6589,407.9585 280.6234,407.9585 274.5876,407.9585 269.123,410.4051 265.1681,414.36 261.2132,418.3149 258.7666,423.7795 258.7666,429.8153 258.7666,435.8509 261.2132,441.3152 265.1683,445.2698 269.1232,449.2247 274.5879,451.6713 280.6234,451.6713 286.6586,451.6713 292.123,449.2247 296.0779,445.2698 300.0328,441.3149 302.4794,435.8506 302.4794,429.8153 302.4794,423.7798 300.0328,418.3152 296.0779,414.3603 Z"
         style="fill-rule:evenodd;fill:#2d2c2b;" />
      <path
         id="path62"
         d="M 329.2625,440.2675 C 336.4682,440.2675 342.993,443.1889 347.7152,447.9114 352.4372,452.6337 355.3586,459.1582 355.3586,466.3647 355.3586,473.5706 352.4372,480.0949 347.7149,484.8171 342.9927,489.5393 336.4685,492.4607 329.2625,492.4607 322.056,492.4607 315.5315,489.5393 310.8093,484.8174 306.0867,480.0951 303.1654,473.5704 303.1654,466.3647 303.1654,459.1582 306.0867,452.6337 310.809,447.9111 315.5315,443.1889 322.056,440.2675 329.2625,440.2675 Z M 347.3144,448.3123 C 342.6948,443.6923 336.312,440.8345 329.2625,440.8345 322.2128,440.8345 315.8297,443.6923 311.2098,448.312 306.5902,452.9319 303.7323,459.3149 303.7323,466.3647 303.7323,473.4142 306.5902,479.7969 311.2101,484.4166 315.8297,489.0359 322.2128,491.8938 329.2625,491.8938 336.3117,491.8938 342.6945,489.0359 347.3141,484.4163 351.9337,479.7967 354.7916,473.4139 354.7916,466.3647 354.7916,459.3149 351.9337,452.9319 347.3144,448.3123 Z M 329.2625,443.9407 C 335.4545,443.9407 341.0603,446.4507 345.1178,450.5085 349.1751,454.566 351.6851,460.173 351.6851,466.3647 351.6851,472.5567 349.1751,478.1625 345.1178,482.22 341.0603,486.2772 335.4545,488.7873 329.2625,488.7873 323.0708,488.7873 317.4639,486.2772 313.4064,482.22 309.3486,478.1625 306.8385,472.5567 306.8385,466.3647 306.8385,460.173 309.3486,454.566 313.4061,450.5083 317.4639,446.4507 323.0708,443.9407 329.2625,443.9407 Z M 344.717,450.9094 C 340.7621,446.9542 335.2978,444.5076 329.2625,444.5076 323.2267,444.5076 317.7621,446.9542 313.8069,450.9091 309.852,454.8643 307.4054,460.3289 307.4054,466.3647 307.4054,472.3999 309.852,477.8643 313.8072,481.8192 317.7621,485.7738 323.2267,488.2204 329.2625,488.2204 335.2978,488.2204 340.7621,485.7738 344.717,481.8192 348.6716,477.8643 351.1182,472.3999 351.1182,466.3647 351.1182,460.3289 348.6716,454.8643 344.717,450.9094 Z"
         style="fill-rule:evenodd;fill:#2d2c2b;" />
      <path
         id="path64"
         d="M 332.8787,452.2674 C 329.4374,454.2542 325.732,455.37 322.0197,455.6818 318.2372,455.9995 314.4455,455.4842 310.9164,454.2086 309.9906,455.5987 309.219,457.0997 308.6266,458.6865 308.0489,460.2345 307.6404,461.8664 307.4247,463.559 312.4168,465.3669 316.69,468.6525 319.7032,472.8798 322.6768,477.0513 324.4238,482.1409 324.4238,487.6328 L 324.4218,487.8028 324.6392,487.855 324.5074,488.1189 324.3402,491.8912 324.0173,491.8258 C 318.0317,490.6123 312.7927,487.3414 309.0713,482.7841 305.439,478.3357 303.2515,472.6616 303.2249,466.4786 302.4989,466.3213 301.7585,466.1994 301.0071,466.1158 300.1952,466.0251 299.3661,465.9783 298.5231,465.9783 297.9961,465.9783 297.4774,465.9968 296.9691,466.0325 296.5269,466.0634 296.0889,466.1076 295.6558,466.1634 295.5339,472.5369 293.1296,478.353 289.2268,482.8258 285.2237,487.4136 279.642,490.5907 273.3293,491.5103 L 273.0231,491.5548 273.0107,491.3141 272.8919,491.3422 272.8502,491.0315 C 272.7748,490.4666 272.7173,489.9002 272.6793,489.3341 272.6416,488.7669 272.622,488.1991 272.622,487.6328 272.622,481.794 274.5969,476.4098 277.9214,472.0995 281.2742,467.7525 286.0007,464.4978 291.458,462.9699 291.0864,459.9023 290.0857,457.0282 288.5893,454.4807 287.295,454.9139 285.9534,455.2481 284.5755,455.4737 283.193,455.7002 281.7765,455.8181 280.3374,455.8181 276.1997,455.8181 272.2864,454.8504 268.8126,453.1292 265.2052,451.3419 262.0715,448.7411 259.6516,445.5683 L 259.4398,445.2902 259.5742,445.227 257.6803,442.3581 257.9678,442.2161 C 259.7374,441.3413 261.6202,440.6601 263.5863,440.2023 265.4969,439.7573 267.4877,439.5217 269.5317,439.5217 276.1673,439.5217 282.2261,441.9969 286.8355,446.074 288.0193,447.1209 289.1066,448.2737 290.0843,449.517 291.524,448.8032 292.8736,447.9375 294.1106,446.9411 295.4044,445.8997 296.5774,444.7137 297.6055,443.4103 297.4612,443.1776 297.3203,442.942 297.1826,442.7031 294.4066,437.8961 293.3323,432.574 293.7722,427.4351 294.2246,422.1485 296.28,417.0526 299.7326,412.9075 L 299.9684,412.6243 302.1497,415.7175 302.1712,415.6897 302.3864,416.0324 C 303.66,418.0654 304.6612,420.2858 305.3361,422.6403 305.9898,424.9193 306.3402,427.3271 306.3402,429.8153 306.3402,432.3042 305.9901,434.7125 305.3364,436.9918 304.685,439.2643 303.7303,441.411 302.5191,443.3859 303.175,444.2134 303.8822,444.9832 304.6334,445.6933 306.1468,447.1245 307.8411,448.3171 309.655,449.2539 312.0562,446.5123 315.0272,444.2788 318.3834,442.7385 321.6796,441.2259 325.3453,440.3826 329.2058,440.3826 331.3998,440.3826 333.5318,440.6553 335.5685,441.1681 337.6681,441.697 339.6674,442.482 341.5289,443.4868 L 341.8191,443.6436 341.6593,443.8545 341.7233,443.8865 341.5456,444.1533 C 340.452,445.7937 339.1614,447.3244 337.6862,448.7057 336.2539,450.0465 334.6481,451.2458 332.8787,452.2674 Z M 321.9732,455.1171 C 325.6058,454.8118 329.2302,453.721 332.5952,451.7782 334.33,450.7767 335.9018,449.6031 337.3007,448.2935 338.6625,447.0185 339.8644,445.6114 340.8965,444.1045 L 340.7981,444.0552 340.969,443.8301 C 339.232,442.9213 337.3758,442.2073 335.4313,441.7174 333.4402,441.2163 331.3542,440.9495 329.2058,440.9495 325.4255,440.9495 321.8394,441.7739 318.6181,443.2521 315.2718,444.7879 312.3145,447.0316 309.9387,449.7914 L 309.7945,449.9586 309.5966,449.8591 C 307.6634,448.8849 305.8563,447.6266 304.2456,446.1032 303.5225,445.4192 302.8394,444.6822 302.2021,443.8936 L 302.1718,443.9418 301.9241,443.6223 C 301.5207,443.1022 301.1403,442.5656 300.7854,442.0151 300.4305,441.4643 300.098,440.8963 299.7907,440.3134 L 299.721,440.1816 299.7411,440.1434 C 297.75,436.3458 296.9422,432.2188 297.2013,428.203 297.4833,423.8306 299.0296,419.5877 301.6862,416.0421 L 299.9324,413.5547 C 296.6967,417.5563 294.7691,422.4294 294.3369,427.4816 293.9063,432.5111 294.9568,437.7183 297.6712,442.4199 298.8873,444.5277 300.3602,446.3969 302.027,448.0112 303.749,449.6791 305.6783,451.0746 307.7459,452.1784 L 308.0169,452.323 307.8499,452.5815 C 306.8558,454.1182 306.0227,455.7699 305.3755,457.5115 304.7428,459.2129 304.287,461.0015 304.0311,462.854 L 303.9897,463.1525 303.6946,463.0921 C 302.8533,462.9195 301.9969,462.7874 301.1289,462.6998 300.278,462.6136 299.4086,462.5694 298.5231,462.5694 297.9615,462.5694 297.4093,462.5872 296.8682,462.6215 296.3095,462.6573 295.7607,462.7106 295.2238,462.7794 L 294.9418,462.8157 294.9072,462.5325 C 294.4964,459.1556 293.4272,455.982 291.8316,453.1433 L 291.7154,453.2014 291.5824,452.9699 C 291.2941,452.4664 290.992,451.978 290.6779,451.5069 290.3559,451.0239 290.0186,450.5536 289.6676,450.0967 L 289.455,449.8194 289.563,449.7681 C 288.6267,448.5886 287.5881,447.4936 286.4614,446.4969 281.9531,442.5094 276.0253,440.0887 269.5317,440.0887 267.5302,440.0887 265.5825,440.3188 263.715,440.754 261.896,441.1774 260.1522,441.7954 258.5064,442.5831 L 260.0932,444.9864 C 260.5419,444.7843 260.9969,444.5966 261.4584,444.4243 262.0338,444.2091 262.6186,444.0169 263.209,443.85 L 263.3848,443.8001 263.4148,443.8358 C 263.8037,443.7269 264.1963,443.628 264.5932,443.5398 266.1854,443.1855 267.8386,442.9981 269.5317,442.9981 275.3311,442.9981 280.6226,445.1791 284.6307,448.7658 288.6817,452.3907 291.4211,457.452 292.0482,463.1477 L 292.0748,463.3886 291.8401,463.4521 C 286.4035,464.919 281.6946,468.1327 278.3687,472.4447 275.1194,476.6576 273.189,481.9221 273.189,487.6328 273.189,488.1969 273.2077,488.7522 273.244,489.2967 273.2743,489.7531 273.3171,490.2035 273.3707,490.6471 L 273.5405,490.6069 273.5555,490.9037 C 279.6052,489.9472 284.9502,486.8683 288.8016,482.4539 292.6689,478.0216 295.0325,472.242 295.0951,465.9134 L 295.0977,465.6694 295.3386,465.6356 C 295.8653,465.5619 296.3971,465.5052 296.9317,465.4678 297.4615,465.4307 297.9924,465.4114 298.5231,465.4114 299.3803,465.4114 300.2301,465.4596 301.0689,465.5534 301.917,465.6478 302.7521,465.7901 303.5704,465.9763 L 303.7918,466.0265 303.7901,466.3641 C 303.7912,472.4575 305.9354,478.0502 309.5096,482.4275 313.0826,486.8033 318.0858,489.9668 323.805,491.2041 L 323.9351,488.2666 323.852,488.2465 323.858,487.6328 C 323.8569,482.2617 322.149,477.2854 319.2423,473.2075 316.2532,469.014 311.9956,465.7677 307.0222,464.0159 L 306.8087,463.9405 306.8351,463.7171 C 307.048,461.9007 307.4777,460.1489 308.0971,458.4892 308.7323,456.7878 309.5674,455.1837 310.5723,453.7066 L 310.697,453.5232 310.9045,453.6003 C 314.4163,454.9034 318.1997,455.434 321.9732,455.1171 Z M 286.088,451.0321 C 285.5132,450.3815 284.9009,449.7653 284.2543,449.1865 280.3479,445.6908 275.1885,443.5651 269.5317,443.5651 267.8746,443.5651 266.2625,443.7471 264.7151,444.0915 264.4143,444.1584 264.1161,444.2315 263.8202,444.3103 265.8195,446.5871 268.2831,448.448 271.0619,449.744 273.8792,451.0582 277.0226,451.7923 280.3374,451.7923 281.3811,451.7923 282.4053,451.7203 283.4033,451.5809 284.3155,451.4536 285.2118,451.2694 286.088,451.0321 Z M 263.2181,444.4804 C 262.2342,444.7738 261.2786,445.1338 260.3571,445.555 262.688,448.5098 265.6602,450.936 269.0626,452.6218 272.4593,454.3047 276.2878,455.2512 280.3374,455.2512 281.753,455.2512 283.1389,455.1364 284.4848,454.9158 285.7436,454.7098 286.9727,454.4101 288.1638,454.0252 287.9107,453.6173 287.6426,453.2162 287.3622,452.8242 287.049,452.3859 286.7182,451.9579 286.3723,451.5415 285.4341,451.8017 284.4689,452.0032 283.481,452.141 282.4506,452.2847 281.4007,452.3593 280.3374,452.3593 276.9378,452.3593 273.7137,451.6061 270.8226,450.2577 267.8905,448.89 265.3004,446.9091 263.2181,444.4804 Z M 290.4364,449.9745 C 291.0189,450.7495 291.5592,451.5585 292.0538,452.3973 293.4833,451.654 294.8338,450.779 296.0875,449.7888 297.3892,448.7613 298.5902,447.6064 299.6711,446.343 299.338,445.9388 299.0166,445.5247 298.7082,445.1003 298.4329,444.721 298.1662,444.3324 297.9094,443.9361 296.888,445.2046 295.7326,446.3612 294.465,447.3816 293.2228,448.382 291.873,449.2536 290.4364,449.9745 Z M 292.3356,452.8871 C 293.9165,455.705 294.9902,458.8452 295.4336,462.1844 295.9004,462.1292 296.367,462.0866 296.8325,462.0569 297.3969,462.0212 297.9612,462.0025 298.5231,462.0025 299.416,462.0025 300.3041,462.0481 301.1845,462.1374 301.9725,462.2168 302.7495,462.3318 303.5137,462.4795 303.7816,460.6926 304.2326,458.964 304.846,457.3142 305.4716,455.6307 306.2673,454.0294 307.2112,452.5313 305.1981,451.4264 303.3181,450.049 301.6329,448.4166 301.089,447.8896 300.5649,447.3357 300.0631,446.7555 298.9715,448.0251 297.7566,449.1901 296.4373,450.2316 295.1612,451.239 293.7883,452.1302 292.3356,452.8871 Z M 299.9701,419.9312 C 298.7025,422.5283 297.9522,425.3542 297.7659,428.2387 297.5216,432.0303 298.2512,435.922 300.0583,439.5251 300.7488,438.126 301.2951,436.642 301.6766,435.0946 302.093,433.4054 302.3144,431.6369 302.3144,429.8153 302.3144,427.9941 302.093,426.2261 301.6766,424.5372 301.2789,422.9252 300.702,421.382 299.9701,419.9312 Z M 300.3803,440.1431 C 300.4778,440.3234 300.5782,440.5031 300.6814,440.682 301.1323,441.4618 301.623,442.2039 302.15,442.9071 303.279,441.0298 304.1736,438.9925 304.7916,436.837 305.4308,434.6079 305.7732,432.2517 305.7732,429.8153 305.7732,427.3795 305.4305,425.0239 304.7913,422.7951 304.1685,420.6229 303.2646,418.57 302.1228,416.6804 301.8226,417.0827 301.5349,417.4974 301.2608,417.9226 300.9407,418.4186 300.64,418.9292 300.3602,419.4513 301.1658,421.0041 301.7971,422.6641 302.226,424.4023 302.654,426.1377 302.8813,427.951 302.8813,429.8153 302.8813,431.6797 302.654,433.4939 302.226,435.2295 301.8008,436.9538 301.1766,438.601 300.3803,440.1431 Z M 307.2917,467.7863 C 307.5559,471.9212 308.9648,475.7451 311.2041,478.9434 313.5008,482.2234 316.6724,484.8471 320.3804,486.4765 320.1605,482.3436 318.7692,478.5171 316.529,475.3179 314.229,472.0326 311.0329,469.4066 307.2917,467.7863 Z M 310.7415,479.2666 C 308.3613,475.867 306.8957,471.7797 306.703,467.3633 L 306.6837,466.9228 307.0916,467.0898 C 311.1123,468.7342 314.5456,471.5011 316.9916,474.9948 319.3733,478.3961 320.8204,482.4882 320.9644,486.9045 L 320.9786,487.3428 320.5735,487.1747 C 316.5911,485.5209 313.1844,482.7557 310.7415,479.2666 Z M 291.5753,467.0921 C 287.3511,468.4898 283.7004,471.1277 281.0653,474.5687 278.4869,477.936 276.8808,482.0717 276.6606,486.5658 280.8374,485.1422 284.4522,482.5023 287.0813,479.0687 289.6563,475.7057 291.2871,471.581 291.5753,467.0921 Z M 280.6157,474.2257 C 283.4016,470.5877 287.2942,467.8248 291.797,466.4273 L 292.1808,466.308 292.1624,466.7097 C 291.9438,471.4767 290.2513,475.8593 287.5309,479.4117 284.7518,483.0409 280.8995,485.8055 276.4485,487.2311 L 276.0678,487.353 276.0797,486.9544 C 276.2246,482.1797 277.8914,477.7835 280.6157,474.2257 Z M 313.6635,450.8515 C 316.4315,451.6534 319.3532,451.9165 322.257,451.5956 325.2013,451.2699 328.1281,450.343 330.857,448.7675 331.7672,448.2428 332.6267,447.6611 333.4329,447.0316 334.1288,446.4879 334.7861,445.9065 335.4029,445.2925 334.4834,445.0224 333.5386,444.8103 332.5745,444.6621 331.4772,444.4931 330.3519,444.4055 329.2058,444.4055 326.1455,444.4055 323.2315,445.0311 320.5865,446.1613 317.9812,447.2742 315.6344,448.8766 313.6635,450.8515 Z M 322.3188,452.158 C 319.1811,452.505 316.023,452.1866 313.0512,451.2583 L 312.6163,451.1222 312.9316,450.7931 C 315.0215,448.6093 317.5464,446.845 320.3649,445.6409 323.0802,444.4809 326.0687,443.8386 329.2058,443.8386 330.3788,443.8386 331.5319,443.9288 332.6584,444.102 333.8099,444.2791 334.9321,444.5439 336.0175,444.8877 L 336.452,445.0255 336.136,445.3537 C 335.4103,446.1069 334.624,446.8175 333.7804,447.4766 332.9555,448.1209 332.0742,448.7173 331.1402,449.2562 328.341,450.8731 325.3385,451.8241 322.3188,452.158 Z"
         style="fill-rule:evenodd;fill:#2d2c2b;" />
      <path
         id="path66"
         d="M 323.7055,484.8724 L 320.8181,484.9829 C 321.0001,485.9376 320.904,486.5304 320.8255,487.1458 319.8589,486.9814 319.055,486.6094 318.3545,486.1066 L 318.5291,489.4347 C 320.1834,490.2715 321.9491,490.8438 323.805,491.2041 323.979,489.0373 323.9915,486.9215 323.7055,484.8724 Z"
         style="fill-rule:evenodd;fill:#ffffff;" />
      <path
         id="path68"
         d="M 273.3803,484.755 L 276.2158,484.7357 C 276.0338,485.6905 275.9893,486.7376 276.0678,487.353 277.0166,487.0911 278.6961,486.5023 279.4051,486.0473 L 279.1735,489.2516 C 277.5192,490.0884 275.0386,490.536 273.1827,490.8963 273.0087,488.7295 273.0943,486.8042 273.3803,484.755 Z"
         style="fill-rule:evenodd;fill:#ffffff;" />
      <path
         id="path70"
         d="M 264.4771,440.5886 L 265.7164,443.3199 C 264.7762,443.5659 263.7842,443.6979 263.2623,444.0327 262.8652,444.5419 264.729,446.0598 265.2537,446.5666 L 262.5709,447.8673 C 261.0211,446.7657 259.5617,444.2218 258.5998,442.6391 260.1468,441.496 262.0097,441.1297 264.4771,440.5886 Z"
         style="fill-rule:evenodd;fill:#ffffff;" />
      <path
         id="path72"
         d="M 334.5467,441.5363 L 333.3305,444.2157 C 334.2707,444.4618 335.2397,444.6455 335.7616,444.9803 336.1586,445.4895 334.2949,447.0074 333.7701,447.5142 L 336.3356,449.1308 C 337.8855,448.0289 340.0074,445.413 340.969,443.8301 339.4222,442.6872 337.0142,442.0774 334.5467,441.5363 Z"
         style="fill-rule:evenodd;fill:#ffffff;" />
      <path
         id="path74"
         d="M 296.4795,419.5311 L 298.5593,421.7968 C 299.1195,420.841 299.6612,418.9324 299.8162,418.9171 300.4108,418.6654 301.207,421.134 301.5607,421.772 L 303.8602,420.1231 C 303.1973,418.341 301.3332,414.9277 300.0532,413.5892 298.5488,414.7874 297.641,417.2875 296.4795,419.5311 Z"
         style="fill-rule:evenodd;fill:#ffffff;" />
    </g>
  </g>
  <g
     id="g80" />
  <g
     id="g82" />
</svg>
